<?xml version="1.0" encoding="UTF-8" standalone="no"?>
<svg
   height="800"
   width="800"
   viewBox="0 0 433.7 433.7"
   fill="#181818"
   version="1.1"
   id="svg4"
   sodipodi:docname="imgBackground.svg"
   inkscape:version="1.1.1 (1:1.1+202109281949+c3084ef5ed)"
   xmlns:inkscape="http://www.inkscape.org/namespaces/inkscape"
   xmlns:sodipodi="http://sodipodi.sourceforge.net/DTD/sodipodi-0.dtd"
   xmlns="http://www.w3.org/2000/svg"
   xmlns:svg="http://www.w3.org/2000/svg">
  <defs
     id="defs8" />
  <sodipodi:namedview
     id="namedview6"
     pagecolor="#ffffff"
     bordercolor="#111111"
     borderopacity="1"
     inkscape:pageshadow="0"
     inkscape:pageopacity="0"
     inkscape:pagecheckerboard="1"
     showgrid="false"
     inkscape:zoom="0.66875"
     inkscape:cx="167.47664"
     inkscape:cy="367.1028"
     inkscape:window-width="1366"
     inkscape:window-height="718"
     inkscape:window-x="0"
     inkscape:window-y="24"
     inkscape:window-maximized="1"
     inkscape:current-layer="svg4" />
  <path
     d="M7.178 0c.297 1.163 1.13 2.342 2.341 3.09 2.09 1.28 4.24 1.06 5.92-.73.657-.702 1.152-1.526 1.407-2.36H14.19c-.919.7-1.601 1.286-2.181 1.19-.542-.077-1.018-.616-1.489-1.19H7.178zm19.734 0a892.646 892.646 0 01-13.373 13.359c-.83.81-2.029 1.251-2.229 1.371-4.79-.02-6.69 1.51-6.75 4.52-.06 2.74 1.95 4.85 4.66 4.91 2.94.06 4.689-2.251 4.819-5.871.04-1.12.67-2.46 1.46-3.28C20.428 9.923 25.425 4.906 30.542 0h-3.63zm17.375 0c-.72 1.555-1.856 2.967-3.317 4.36-8.09 7.71-15.81 15.81-23.83 23.59-1.17 1.14-3.15 1.74-4.84 1.96-2.79.36-4.85 2.1-4.84 4.78 0 2.72 2.09 4.791 4.8 4.771 2.77-.03 4.99-2 4.58-4.83-.33-2.33.68-3.52 2.07-4.91 8.78-8.73 17.579-17.45 26.209-26.32.837-.851 1.464-2.125 1.799-3.4h-2.631zm23.977 0c-.014.654-.014 1.308-.034 1.96-.05 1.8-.87 3.99-2.1 5.27-7.08 7.37-14.25 14.66-21.67 21.68-3.62 3.43-6.36 6.84-5 12.15 1.15 5.28-.82 9.24-5.01 12.5-2.07 1.61-3.8 3.67-5.64 5.57-1.35 1.39-2.49 2.48-4.89 1.83-2.83-.77-5.35 1.46-5.42 4.26s1.44 4.55 4.17 5.01c2.81.47 4.76-1.5 5.27-4.59.23-1.39.95-2.83 1.83-3.95 1.25-1.6 2.69-3.13 4.32-4.33 6.34-4.67 9.21-10.68 7.78-18.58-.47-2.59.65-4.48 2.53-6.32 8.18-7.98 16.26-16.05 24.21-24.25C69.78 7 70.6 4.94 70.67 3.25c.03-1.083.046-2.166.066-3.25h-2.472zm14.52 0c-.024.737-.05 1.476-.105 2.21-.14 1.72-.89 3.75-2.06 4.96-7.69 7.95-15.48 15.81-23.45 23.49-2.47 2.38-3.839 4.8-3.279 8.2 1.1 6.71-.75 12.18-6.51 16.2-1.65 1.15-3.001 2.779-4.341 4.309-1.27 1.46-2.42 2.141-4.59 1.591-2.9-.73-5.32 1.39-5.53 4.2-.2 2.6 1.85 5.03 4.51 5.06 2.97.04 4.571-1.481 4.981-4.531.18-1.39.92-2.829 1.78-3.959 1.16-1.52 2.53-2.95 4.06-4.09 6.48-4.84 9.47-10.96 8.19-19.21-.27-1.73.93-4.201 2.25-5.571 8.01-8.31 16.31-16.34 24.34-24.63 1.17-1.2 1.97-3.26 2.02-4.97.032-1.086.039-2.173.054-3.26h-2.319zm14.36 0c-.014.673-.014 1.347-.035 2.02-.06 1.8-.919 3.97-2.149 5.26-6.05 6.36-11.992 12.91-18.672 18.56-6.34 5.37-9.339 11.4-8.049 19.65.21 1.32-.36 3.19-1.26 4.17-3.82 4.15-7.9 8.061-11.87 12.051-.48-.18-.8-.31-1.13-.41-3.66-1.14-6.16-.061-6.87 2.969-.67 2.87.96 5.46 3.75 5.96 2.87.52 5.05-1.49 5.71-5.06a5.9 5.9 0 011.33-2.709c1.59-1.8 3.18-3.681 5.09-5.101 6.32-4.7 9.18-10.71 7.76-18.6-.47-2.6.67-4.48 2.55-6.31 8-7.82 15.8-15.85 23.84-23.64 1.9-1.85 2.62-3.72 2.55-6.32-.024-.83-.017-1.66-.02-2.49h-2.525zm7.27 0c-.001 3.129-.01 6.257-.095 9.38-.05 1.7-.84 3.76-2 4.99-5.11 5.43-10.51 10.58-15.74 15.9-1.54 1.57-2.87 2.849-5.48 2.589-2.83-.28-4.38 1.73-4.54 4.51-.15 2.66 2.08 4.9 4.75 4.83 2.85-.07 5.13-1.95 4.63-4.41-.7-3.43 1.361-4.759 3.111-6.559 2.51-2.58 4.86-5.401 7.67-7.621 7.773-6.158 12.693-13.337 10.305-23.609h-2.611zm21.888 0c.003.633.008 1.268.008 1.9 0 3.48.16 6.98-.1 10.45-.09 1.33-.82 2.85-1.73 3.84-2.03 2.2-2.37 5.05-.47 7.05 1.89 1.99 4.769 2.06 6.759.17 2.2-2.09 1.95-4.88-.34-7.28-.85-.89-1.61-2.3-1.64-3.49-.094-4.21-.095-8.424-.086-12.64h-2.4zm17.305 0c-.04.25-.069.498-.088.74-.34 4.42-.16 8.89-.09 13.33.03 1.98-.189 3.52-2.029 4.93-2.12 1.62-1.87 4.89-.02 6.72 1.88 1.85 4.98 1.8 6.79-.12 1.74-1.85 1.869-5.32-.301-6.74-2.16-1.41-2.148-3.12-2.068-5.17.07-1.92.02-3.85.02-5.77 0-2.28-.211-4.59.089-6.84.044-.349.111-.715.193-1.08h-2.496zm35.326 0c-5.612 5.564-11.18 11.177-16.844 16.689-.87.85-2.62 1.26-3.89 1.14-2.98-.29-5.44 1.09-6.01 3.85-.53 2.58 1.3 5.13 3.92 5.47 3.02.4 4.981-1.239 5.601-4.259.29-1.4.849-2.98 1.809-3.96A1539.904 1539.904 0 01182.373 0h-3.44zm50.605 0c-1.53.512-2.975 1.78-4.478 1.82-7.21.2-14.431-.07-21.641.2-1.9.07-4.21.99-5.57 2.31-8.4 8.1-16.54 16.449-24.87 24.609-.86.84-2.41 1.45-3.59 1.38-3.43-.21-5.67 1.162-5.94 4.142-.27 2.88 1.44 4.96 4.24 5.18 3.09.25 4.89-1.602 5.25-5.022.12-1.18.57-2.57 1.36-3.38 8.34-8.48 16.75-16.91 25.26-25.23.97-.94 2.68-1.559 4.06-1.589 6.97-.16 13.95-.03 20.92-.11 2.12-.02 3.7.41 5.35 2.05 1.06 1.06 3.6 1.41 5.14.95 1.36-.41 2.26-2.38 3.83-4.2-1.004-1.085-1.773-2.26-2.56-3.11h-6.76zm16.092 0c.811.967 2.038 1.537 3.559 1.57 1.597.036 3.071-.537 3.933-1.57h-7.492zm26.863 0c.101 6.614.103 13.239-.054 19.85-.04 1.47-.85 3.21-1.86 4.31-3.41 3.71-7.18 7.1-10.59 10.82-1 1.09-1.79 2.84-1.82 4.3-.18 7.81.04 15.64-.18 23.45-.05 1.68-.89 3.72-2.06 4.93-7.18 7.44-14.41 14.849-21.93 21.939-3.56 3.36-6.04 6.73-4.78 11.84 1.23 5.45-.961 9.43-5.191 12.76-2.16 1.69-3.989 3.82-5.879 5.84-1.23 1.32-2.25 1.97-4.31 1.25-2.65-.93-5.43 1.292-5.63 4.092-.19 2.76 1.079 4.628 3.909 5.158 2.88.54 4.972-1.27 5.592-4.2.34-1.62 1.178-3.24 2.158-4.59 1.04-1.44 2.38-2.76 3.83-3.8 6.56-4.72 9.261-10.93 7.771-18.92-.47-2.52.76-4.24 2.51-5.95 6.29-6.12 12.07-12.83 18.76-18.46 6.21-5.22 8.62-11.08 7.75-19.06-.63-5.7-1.671-12.19.379-17.12 2.1-5.05 7.84-8.54 11.75-12.93 1.15-1.28 2.042-3.27 2.092-4.96.196-6.844.07-13.696.15-20.55h-2.367zm14.535 0c.011 1.563-.046 3.132-.058 4.7-.05 5.88 1.448 12.41-.612 17.48-2.01 4.94-7.78 8.29-11.66 12.55-1.14 1.25-2.018 3.23-2.068 4.91-.22 7.81-.002 15.64-.182 23.45-.04 1.47-.778 3.26-1.808 4.32-7.29 7.5-14.591 15.01-22.201 22.18-3.57 3.37-6.04 6.74-4.82 11.83 1.51 5.72-1.21 9.61-5.36 13.05-2.13 1.74-3.83 4.01-5.95 5.76-.89.73-2.43 1.14-3.59 1-3-.37-5.42.99-5.97 3.78-.53 2.68 1.13 5.12 3.79 5.58 2.97.51 5.12-1.36 5.63-4.57.21-1.29.83-2.66 1.66-3.68 1.43-1.77 2.991-3.54 4.81-4.87 6.07-4.45 8.641-10.211 7.321-17.681-.51-2.84.64-4.949 2.71-6.969 8.09-7.89 16.09-15.88 23.96-23.99 1.18-1.22 2.05-3.26 2.1-4.95.23-7.45.23-14.92.03-22.37-.07-2.67.78-4.549 2.66-6.299 3.17-2.95 6.1-6.15 9.29-9.07 1.92-1.76 2.68-3.651 2.62-6.291-.16-6.61-.14-13.236-.024-19.85h-2.277zm18.035 0c.056 1.115.1 2.226.086 3.31-.03 2.15.069 4.03-2.111 5.63-2.19 1.61-1.869 4.85.181 6.63 2.11 1.83 4.35 1.89 6.46-.031 1.92-1.75 2.23-5.31.08-6.69-2.48-1.59-2.21-3.639-2.21-5.849V0h-2.486zm33.031 0c-5.804 5.79-11.683 11.506-17.285 17.48-2.97 3.17-6 4.759-10.33 4.209-5.31-.68-9.38.93-13.68 4.85-7.55 6.9-12.56 14-9.83 24.63 0 3.72-.13 7.461.02 11.142.1 2.35-.64 4.01-2.33 5.66a1697.29 1697.29 0 00-24.73 24.75c-.96.98-1.96 2.75-1.75 3.94 1.63 9.33-2.08 16.16-9.36 21.55-.86.63-1.43 1.73-2.35 2.21-1.08.57-2.47 1.139-3.59.929-2.94-.54-5.52.66-6.22 3.33-.68 2.62.86 5.17 3.49 5.77 2.87.65 5.11-.95 5.95-3.8.5-1.69 1.41-3.349 2.48-4.769 1.15-1.52 2.56-2.94 4.1-4.05 6.58-4.73 8.91-11 7.81-18.98-.24-1.73 1-4.15 2.32-5.52 7.86-8.13 15.9-16.08 23.96-24 1.75-1.71 2.61-3.46 2.53-5.98-.18-5.65.39-11.35-.17-16.95-.62-6.21 1.87-10.27 5.96-14.76 5.41-5.95 11.119-8.83 19.109-7.75 1.75.24 4.18-.94 5.56-2.25 6.38-6.02 12.93-11.96 18.59-18.63A33.486 33.486 0 01341.225 0h-3.13zm32.754 0c-13.39 13.515-26.819 26.996-40.369 40.34-2.69 2.65-4.07 5.27-3.75 9.1.33 3.94.21 7.94-.01 11.9-.07 1.33-.77 2.84-1.66 3.85-1.89 2.16-2.21 5.2-.39 7.14 1.76 1.87 4.95 1.88 6.8.01 1.99-2.01 1.71-4.87-.22-7.11-1.02-1.18-1.73-2.86-1.99-4.41-.33-1.99-.08-4.071-.08-6.121.01 0 .02 0 .04-.01 0-2.16-.26-4.368.08-6.478.28-1.75.83-3.81 2-5C345.607 28.726 360.017 14.333 374.485 0h-3.635zm19.775 0a6.6 6.6 0 001.244 2.7c1.04 1.35 1.98 3.209 1.99 4.839.13 21.53.032 43.05.192 64.58.01 1.89 1.019 4.152 2.289 5.602 3.16 3.61 6.8 6.789 10.1 10.289.76.8 1.25 2.19 1.26 3.31.02 3.25 1.831 5.55 4.781 5.6 2.64.04 4.79-2.13 4.78-4.84-.02-3.01-2.21-4.82-6.86-4.53-.21-.13-1.49-.61-2.39-1.45-2.89-2.72-5.51-5.73-8.49-8.34-2.36-2.08-3.251-4.33-3.231-7.5.12-21.17.01-42.33.11-63.5.01-1.28.971-2.77 1.901-3.78A6.275 6.275 0 00399.825 0h-2.666c-.357.658-1.12 1.425-1.83 2.48-.817-1.042-1.738-1.857-2.125-2.48h-2.58zm18.465 0c-.01 16.759-.036 33.519-.1 50.279-.02 3.46.981 5.881 3.481 8.121 3.22 2.88 6.28 5.97 9.17 9.19 1 1.12 1.779 2.87 1.809 4.35.17 7.57.17 15.16-.01 22.73-.03 1.48-.73 3.309-1.76 4.359-7.8 8.01-15.78 15.85-23.66 23.79-1.32 1.34-2.43 2.19-4.61 1.77-2.97-.58-5.24 1.58-5.37 4.4-.12 2.64 1.97 4.96 4.65 4.92 2.99-.05 4.48-1.68 4.9-4.68.21-1.49.82-3.21 1.84-4.25 7.97-8.19 16.15-16.16 24.07-24.4 1.32-1.37 2.27-3.67 2.33-5.58.25-8.05.2-16.12.02-24.17-.03-1.48-.83-3.239-1.85-4.349-3.41-3.71-7.18-7.1-10.59-10.82-1.01-1.11-1.85-2.88-1.85-4.35-.04-17.104-.053-34.207-.058-51.31h-2.412zm14.475 0c0 16.084-.033 32.168-.135 48.25-.03 4.87.98 8.6 4.91 11.49 2.051 1.51 3.852 3.125 5.36 4.83v-2.982c-1.996-1.977-4.017-3.933-5.91-6.008-1.01-1.11-1.79-2.901-1.79-4.381-.046-17.065-.064-34.131-.066-51.199h-2.369zm-190.66 1.02c.87.01 1.71 1.19 2.56 1.86-.79.87-1.45 2.2-2.41 2.46-.68.19-1.75-1.08-3.2-2.08 1.37-1.07 2.23-2.25 3.05-2.24zm108.51 6.95c-2.8-.05-5.13 1.9-4.62 4.69.48 2.68-.76 4-2.36 5.51-1.83 1.73-3.84 3.37-5.31 5.38-3.31 4.54-7.62 6.281-13.05 5.331-5.05-.89-8.24 1.7-11.89 4.85-7.69 6.63-12.86 13.799-9.991 22.529 0 5.95.18 9.929-.12 13.859-.11 1.6-.849 3.48-1.939 4.63a478.926 478.926 0 01-16.56 16.562c-1.11 1.06-2.971 1.64-4.551 1.82-2.93.33-4.91 1.939-4.85 4.699.07 2.84 1.74 4.44 4.43 4.82 2.52.36 5.38-1.92 4.95-4.49-.52-3.15 1.26-4.59 3.03-6.32 2.49-2.44 4.73-5.21 7.48-7.29 8.43-6.38 12.49-14.4 10.41-25.07-.03-.12.01-.24-.01-.36-1.94-10.24 1.86-17.95 9.95-24.21 2.86-2.21 5.279-4.34 9.129-3.65 6.49 1.17 11.63-.889 15.57-6.299 1.54-2.11 3.551-3.94 5.611-5.57 1.23-.97 2.94-1.64 4.5-1.82 2.64-.3 4.88-2.211 4.93-4.791.05-2.67-2-4.749-4.74-4.809zM244.63 9.833a3.81 3.81 0 00-3.246 1.559c-1.48 1.97-3.14 2.139-5.24 2.119-7.1-.07-14.201-.17-21.291.07-1.81.06-4.01.9-5.29 2.14-8.39 8.11-16.54 16.46-24.9 24.6-1 .98-2.78 1.49-4.25 1.6-3.03.23-5.389 2.09-5.189 4.84.2 2.71 1.69 4.48 4.53 4.71 2.87.24 4.68-1.81 5.05-4.9.19-1.59.81-3.43 1.87-4.54 5.39-5.65 11.35-10.81 16.43-16.72 6.19-7.21 12.88-12.16 22.95-9.41 3.25 0 6.499.06 9.739-.02 2.22-.06 4.03.129 5.64 2.159 1.7 2.14 4.94 1.88 6.69-.11 1.87-2.13 1.83-4.358-.09-6.458-.94-1.02-2.184-1.597-3.402-1.64zm61.912.107c.79-.05 1.66 1.11 3.06 2.17-1.43 1.03-2.45 2.281-3.07 2.121-.95-.27-1.62-1.52-2.41-2.35.8-.7 1.58-1.89 2.42-1.94zm35.03.6c.71.111 1.707 1.118 3.01 1.932-1.33 1.12-2.14 2.339-2.99 2.369-.85.02-1.73-1.16-2.59-1.81.75-.88 1.36-2.24 2.28-2.48a.703.703 0 01.29-.011zm-96.73 2.022c.82-.02 1.68 1.18 3.02 2.25-1.45 1-2.52 2.27-3.18 2.08-.96-.26-1.63-1.591-2.42-2.461.86-.67 1.71-1.85 2.58-1.87zM9.612 17.146c.668.137 1.625 1.223 2.92 2.133-1.41 1.03-2.28 2.17-3.1 2.14-.87-.04-1.699-1.189-2.539-1.859.8-.85 1.49-2.16 2.45-2.41a.581.581 0 01.27-.004zm118.03.664c.63-.15 1.62 1.14 3 2.21-1.42 1.01-2.31 2.15-3.09 2.09-.85-.08-1.59-1.29-2.37-2.01.81-.82 1.51-2.06 2.46-2.29zm16.84 2.11c.84.8 2.11 1.49 2.35 2.44.17.69-1.02 1.73-2.02 3.24-1.07-1.45-2.2-2.32-2.18-3.15.03-.86 1.19-1.69 1.85-2.53zm12.85.4c1.09-.09 2.24.67 3.37 1.07-.41.65-.81 1.3-1.22 1.95-.93.51-2.11 1.63-2.74 1.38-.9-.36-1.41-1.72-2.09-2.65.89-.62 1.75-1.67 2.68-1.75zm85.521 4.272c-1.534-.002-3.478.888-4.572 1.947-1.76 1.7-1.34 4.29.54 5.73 1.94 1.49 2.101 3.17 2.081 5.26-.07 6.6.079 13.201-.111 19.791-.04 1.43-.84 3.08-1.79 4.2-1.99 2.35-2.22 5.02-.18 7.03 1.77 1.74 5.121 1.68 6.821-.12 1.83-1.94 1.44-4.91-.47-7.1-.96-1.09-1.761-2.74-1.801-4.17-.19-6.35-.08-12.71-.08-19.07 0-2.24-.35-4.489 2.28-5.869.82-.43 1.03-2.01 1.88-3.84-1.29-1.29-2.44-3.41-3.97-3.73a3.311 3.311 0 00-.628-.059zm-.64 2.308c.78-.09 1.689 1.06 3.109 2.06-1.36 1.1-2.321 2.41-2.951 2.27-.96-.23-1.68-1.46-2.5-2.26.78-.74 1.502-1.98 2.342-2.07zm-104.33 4.952c-1.617.02-3.287.303-5.014.888-6.21 0-10.42-.16-14.6.08-1.49.09-3.26.79-4.32 1.82-8.18 7.97-16.17 16.13-24.36 24.08-1.21 1.18-3.13 1.89-4.84 2.23-2.98.59-4.679 2.47-4.349 5.53.28 2.66 2.57 4.34 5.4 3.97 2.61-.35 4.669-2.82 3.819-5.46-.71-2.18.341-3.05 1.531-4.24 5.7-5.68 11.88-10.98 16.94-17.19 5.7-6.99 12.3-9.77 21.16-8.64 4.97.63 10.67-1.21 14.96.61 4.42 1.88 7.51 6.86 11.21 10.47 1.38 1.34 2.538 2.45 2.118 4.87-.46 2.66 2.06 4.85 4.73 4.72 2.8-.14 4.472-1.68 4.692-4.49.21-2.62-2.111-5.55-4.521-4.94-3.24.82-4.73-1.03-6.22-2.89-5.321-6.654-11.331-11.506-18.337-11.418zm247.43.267a4.682 4.682 0 00-3.362 1.48c-1.87 1.99-1.508 4.94.432 7.1.96 1.08 1.8 2.69 1.84 4.09.2 6.37.09 12.741.09 19.111 0 2.88.319 5.809-.051 8.639-1.21 8.99.91 16.49 8.78 21.78 1.08.72 2.1 1.71 2.78 2.8.93 1.51 1.9 3.18 2.14 4.88.4 2.83 1.67 4.44 4.52 4.59 2.82.15 5.05-1.839 4.97-4.529-.09-2.76-1.8-5.19-4.34-4.71-3.68.7-5.12-1.6-7.07-3.51-2.49-2.43-5.1-4.78-7.32-7.45-1.1-1.32-2.01-3.271-2.03-4.951-.17-12.26-.16-24.52-.01-36.78.02-1.38.94-2.98 1.9-4.08 1.96-2.25 2.18-5.089.16-7.089a4.756 4.756 0 00-3.43-1.371zm-25.043.008a4.738 4.738 0 00-3.368 1.453c-1.94 2.01-1.63 4.88.34 7.08.97 1.07 1.8 2.69 1.84 4.09.19 6.47.08 12.95.09 19.43 0 2.12.13 3.99-2.09 5.6-1.05.76-1.36 3.53-.91 5.08.4 1.36 2.32 2.28 4.13 3.89 1.79-1.57 3.89-2.55 4.24-3.97.41-1.64-.61-3.7-1.21-5.51-.47-1.43-1.76-2.74-1.8-4.13-.19-6.71-.07-13.43-.1-20.15-.01-1.82.07-3.26 1.92-4.54 2.36-1.63 2.28-5.03.33-6.94a4.794 4.794 0 00-3.412-1.382zm-347.9.162c.74.91 1.95 1.782 2.05 2.762.08.72-1.3 1.589-2.38 2.789-.97-1.34-2.27-2.4-2.1-3.06.25-.98 1.57-1.67 2.43-2.49zm155.46.4c.89.77 2.18 1.412 2.51 2.372.19.56-1.14 1.648-2.2 3.048-1.08-1.32-2.311-2.16-2.271-2.94.04-.86 1.26-1.66 1.96-2.48zm217.55 1.782c.82.86 2.089 1.63 2.289 2.61.14.68-1.21 1.649-2.25 2.929-1.02-1.24-2.34-2.19-2.23-2.87.17-.99 1.41-1.79 2.19-2.67zm-24.83.049c.73.84 1.99 1.67 2.02 2.53.03.84-1.21 1.71-2.25 3.03-1.05-1.36-2.411-2.42-2.241-3.08.26-.98 1.59-1.67 2.47-2.48zm-279.22.55c.76.78 2.05 1.51 2.13 2.35.08.85-1.04 1.81-1.98 3.25-1.09-1.31-2.44-2.25-2.35-2.96.15-.97 1.41-1.77 2.2-2.64zm149.83 1.424c-1.61-.015-3.66.742-4.543 1.836-.88 1.09-.89 4.45-.02 5.08 3.3 2.41 2.59 5.58 2.6 8.7.02 5.29.01 10.58 0 15.87 0 2.22.2 4.2-2.22 5.88-2.18 1.52-2.01 4.28-.03 6.35 1.96 2.06 4.32 2.16 6.45.39 2.14-1.79 2.74-4.751.69-6.311-3.15-2.4-2.57-5.309-2.59-8.309-.03-5.41.02-10.82-.02-16.23-.01-2.16-.239-4.2 2.151-5.6.92-.54 1.2-2.18 2.12-4-1.36-1.32-2.5-3.349-3.93-3.599a4.209 4.209 0 00-.658-.056zm-.793 2.217c.84-.08 1.791 1.05 3.261 2.03-1.38 1.1-2.34 2.418-3.03 2.278-.98-.17-1.76-1.428-2.63-2.218.79-.74 1.539-2.01 2.399-2.09zm-29.02 3.558c-1.8 1.76-3.78 2.821-4.17 4.311-.4 1.51.681 3.45 1.28 5.15.5 1.43 1.74 2.76 1.78 4.15.18 7.21.18 14.439 0 21.649-.04 1.47-.78 3.27-1.81 4.32-7.47 7.67-14.95 15.33-22.72 22.69-3.21 3.04-5.08 6.14-4.29 10.62 1.03 5.83-.7 10.59-5.7 13.95-7.85 5.28-10.2 12.75-8.67 21.72.26 1.52.86 3.27 1.89 4.33 7.89 8.08 15.87 16.091 23.97 23.971 2.14 2.08 3.48 4.16 2.98 7.21-1.19 7.23.88 13.08 7.06 17.43 2.03 1.43 3.8 3.369 5.33 5.349 1.01 1.3 1.9 3.07 1.95 4.66.21 6.97.06 13.952.11 20.932.02 2.06.01 3.76-2.11 5.19-2.22 1.51-2.05 4.81-.09 6.68 2.05 1.95 4.38 2.058 6.48.208s2.63-4.758.52-6.328c-2.95-2.2-2.489-4.851-2.509-7.621-.04-4.57-.49-9.21.1-13.7.89-6.8-1.37-11.9-6.74-15.79-6.37-4.62-9.31-10.62-7.82-18.53.52-2.79-.821-4.7-2.741-6.58-8.07-7.92-16.05-15.93-23.99-23.98-.94-.95-1.939-2.289-2.049-3.529-.64-6.9-.8-13.6 6.18-18.11 7.15-4.62 9.51-11.44 8.28-19.81-.21-1.43.8-3.48 1.9-4.61 8.22-8.44 16.649-16.68 24.869-25.13 1.1-1.14 1.87-3.07 1.91-4.66.19-7.33.1-14.67.06-22.01-.01-1.95.16-3.48 1.99-4.97 1.12-.9 1.64-3.59 1.18-5.09-.45-1.45-2.5-2.41-4.41-4.07zm-21.35 2.291c.8-.1 1.75 1 3.23 1.96-1.37 1.15-2.32 2.49-2.96 2.36-.96-.2-1.72-1.43-2.56-2.22.76-.75 1.46-2 2.29-2.1zm21.748 1.358c.69.11 1.68 1.142 2.992 1.982-1.36 1.12-2.19 2.34-3.01 2.32-.89-.02-1.76-1.17-2.64-1.82.78-.87 1.43-2.19 2.38-2.47a.63.63 0 01.278-.012zm170.94.08a4.863 4.863 0 00-3.52 1.611c-1.87 2.06-1.48 4.801.66 7.051.85.89 1.601 2.29 1.631 3.48.16 6.72.05 13.45.1 20.17.02 2.06-.19 3.66-1.99 5.33-1.12 1.03-1.41 4.17-.65 5.64.65 1.26 3.45 2.231 5.04 1.931 1.55-.28 2.77-2.342 4.11-3.602-.82-1.82-1.02-3.379-1.85-3.859-2.5-1.45-2.272-3.65-2.272-5.91 0-6.48-.1-12.97.07-19.45.04-1.3.821-2.82 1.721-3.82 2.01-2.24 2.351-5.08.471-7.08a4.685 4.685 0 00-3.521-1.492zm-26.562.318c-1.107-.05-2.238.345-3.338 1.155-2.14 1.58-2.6 5.049-.42 6.619 2.59 1.86 2.351 4.13 2.351 6.6v9.38c.01 3.72-.22 7.47.11 11.141.16 1.83.92 3.97 2.15 5.26 6.64 6.95 13.87 13.37 20.19 20.59 4.69 5.36 9.839 7.88 16.85 6.78 2.15-.34 4.01-.04 5.55 2.15 1.49 2.12 4.92 1.81 6.74-.06 1.76-1.8 1.65-5.081-.24-6.821-1.92-1.76-5.24-1.84-6.72.4-1.35 2.04-2.95 2.081-4.88 2.041-2.29-.04-4.591.16-6.851-.08-1.3-.13-2.849-.61-3.739-1.48-8.41-8.25-16.75-16.57-24.96-25.02-1.09-1.12-1.78-3.08-1.83-4.67-.2-6.97-.07-13.95-.11-20.92-.02-1.96.05-3.552 2.09-4.862 2.18-1.4 2.13-4.86.25-6.68-1.005-.974-2.087-1.471-3.194-1.523zm-210.44.475c-1.135.02-2.306.11-3.516.27-5.45.71-11.64-1.21-16.4.74-4.62 1.89-7.87 7.17-11.67 11.02-1.54 1.56-2.83 2.8-5.5 2.34-2.76-.48-4.51 1.62-4.67 4.35-.16 2.74 1.33 4.609 4.17 4.939 2.84.33 5.3-1.27 5.09-3.83-.3-3.67 2.08-5.17 3.87-7.42 6.06-7.63 13.15-12.558 21.7-9.739 5.53 0 9.27-.19 12.98.1 1.6.12 3.499.84 4.629 1.94 8.27 8.05 16.42 16.23 24.49 24.49.89.91 1.37 2.548 1.43 3.868.13 2.88 2.06 5.102 4.91 5.102 2.83 0 4.79-1.972 4.72-4.762-.08-2.84-2.35-4.68-5.26-4.77-1.42-.04-3.19-.55-4.18-1.5-5.91-5.66-12.15-11.09-17.28-17.4-5.399-6.64-11.57-9.882-19.514-9.737zm236.98.818c1.11 1.38 2.41 2.36 2.27 2.99-.22.96-1.46 1.69-2.27 2.51-.73-.78-1.95-1.519-2.04-2.369-.08-.78 1.04-1.69 2.04-3.13zm-26.98.381c1.13 1.22 2.51 2.1 2.42 2.76-.14.99-1.33 1.83-2.07 2.73-.85-.79-2.14-1.47-2.4-2.42-.18-.65 1.08-1.7 2.05-3.07zm-183.18.727c.66.13 1.617 1.188 2.894 2.072-1.39 1.06-2.23 2.221-3.04 2.201-.83-.02-1.64-1.2-2.45-1.87.77-.85 1.41-2.15 2.33-2.4a.576.576 0 01.266-.003zm53.422 8.799a4.912 4.912 0 00-3.418 1.445c-1.94 1.94-1.621 4.888.359 7.068.97 1.06 1.62 2.662 1.83 4.102.3 2.12-.069 4.328.121 6.478.22 2.5-.68 4.231-2.47 5.971-7.5 7.29-14.702 14.9-22.312 22.07-3.15 2.97-4.878 6-4.148 10.32 1.01 5.94-.76 10.8-5.83 14.26-7.51 5.13-10.201 12.259-8.541 21.039.34 1.85 1.03 3.95 2.27 5.26 5.96 6.27 11.82 12.72 18.4 18.31 6.28 5.33 9.55 11.212 8.28 19.562-.25 1.64.82 3.98 2.05 5.26 6.73 7.03 13.45 14.109 20.68 20.609 4.58 4.12 7.04 8.46 6.06 14.65-.35 2.27.34 4.529-2.28 6.279-.99.66-1.23 4.03-.44 5.34s3.41 2.38 5 2.12c1.55-.26 2.8-2.328 4.29-3.698-.97-1.86-1.259-3.461-2.19-4.041-2.13-1.32-2.24-3.1-2.16-5.2.09-2.28-.16-4.591.06-6.851.24-2.53-.75-4.269-2.5-5.979-6.2-6.05-11.93-12.62-18.5-18.22-6.17-5.26-9.44-11.1-7.94-19.25.43-2.34-.59-4.02-2.27-5.67-8.24-8.08-16.38-16.27-24.48-24.5-.93-.95-1.86-2.301-2.01-3.561-.84-7.11-.48-13.79 6.44-18.34 6.74-4.44 9.17-10.81 8.05-18.85-.24-1.75.9-4.19 2.2-5.57 6.1-6.47 12.141-13.08 18.881-18.85 5.99-5.13 9.01-10.81 7.69-18.68-.29-1.76-.1-3.3 1.83-4.58 2.37-1.58 2.32-5.071.4-6.961a4.734 4.734 0 00-3.402-1.344zm.002 1.634c1.06 1.33 2.28 2.2 2.25 3.02-.04.84-1.31 1.62-2.04 2.42-.88-.8-2.17-1.48-2.48-2.46-.19-.57 1.2-1.64 2.27-2.98zM-.003 61.096v2.923c4.696 5.027 6.818 10.883 4.789 17.34 0 5.7.142 9.561-.078 13.381-.08 1.39-.642 3.1-1.592 4.06-1.036 1.051-2.082 2.092-3.12 3.142v3.49c1.609-1.623 3.226-3.235 4.83-4.862 1.15-1.16 2.24-2.99 2.28-4.54.21-8.41.17-16.83-.02-25.25-.03-1.48-.858-3.24-1.878-4.35-1.68-1.832-3.446-3.583-5.211-5.334zm242.26.834c.98 1.43 2.09 2.34 2.04 3.16-.06.84-1.28 1.59-1.99 2.38-.81-.82-2.1-1.54-2.28-2.48-.14-.69 1.15-1.66 2.23-3.06zm-204.55.37c1.04 1.41 2.318 2.42 2.148 3.09-.21.93-1.52 1.59-2.36 2.37-.72-.8-1.97-1.571-2-2.391s1.151-1.688 2.211-3.068zm-14.631.85c.84.81 2.099 1.5 2.359 2.46.17.63-1.11 1.66-2.16 3.07-1.07-1.4-2.26-2.28-2.19-3.06.07-.87 1.28-1.65 1.99-2.47zm28.56.02c.78.85 2.01 1.62 2.18 2.58.12.65-1.27 1.549-2.47 2.869-.9-1.46-1.96-2.429-1.84-3.219.12-.83 1.37-1.5 2.13-2.23zm33.47.36c.65-.17 1.681 1.12 3.191 2.24-1.49 1.07-2.401 2.22-3.361 2.26-.73.03-2.24-1.53-2.11-2.07.24-.98 1.33-2.18 2.28-2.43zm13.82 0c.66-.11 1.59 1.25 3.01 2.48-1.57.96-2.57 2.04-3.51 1.99-.74-.04-2.12-1.7-1.95-2.24.3-.96 1.48-2.06 2.45-2.23zm42.938 2.892c-2.706.08-4.503 1.996-4.428 4.818.08 2.9 2.17 4.66 5.22 4.71 1.15.02 2.62.26 3.38.99a653.916 653.916 0 0115.8 15.8c.68.71 1.03 2.02 1.02 3.05-.03 3.3 1.75 5.59 4.66 5.64 2.79.05 4.72-1.87 4.74-4.71.02-3.19-1.799-4.8-5.709-4.17-1.12-.66-2.44-1.12-3.33-2.02-5.08-4.94-10.11-9.93-15.02-15.05-.82-.85-1.26-2.38-1.27-3.61-.03-3.1-1.67-5.27-4.51-5.44a6.18 6.18 0 00-.553-.008zm186.46.437c.78-.02 1.59 1.152 2.98 2.272-1.5.97-2.56 2.13-3.18 1.94-.92-.29-1.521-1.56-2.261-2.41.82-.64 1.63-1.782 2.46-1.802zm-186.04 2.17c.85-.01 1.7 1.15 3.12 2.23-1.52.98-2.579 2.19-3.279 2.01-.96-.26-1.62-1.57-2.41-2.43.86-.65 1.709-1.8 2.569-1.81zm217.99.682c1.12 1.46 2.42 2.448 2.29 3.148-.19.96-1.47 1.711-2.29 2.551-.79-.76-2.21-1.53-2.2-2.28.01-.98 1.17-1.93 2.2-3.42zm-344.16 3.228c-2.63.02-4.85 2.27-4.8 4.85.05 2.84 2.56 4.79 5.67 4.75 1.11-.01 2.52.381 3.29 1.121a550.403 550.403 0 0115.29 15.27c.86.89 1.37 2.42 1.44 3.69.2 3.51 1.791 5.44 4.881 5.31 2.89-.13 4.37-1.88 4.59-4.58.23-2.93-2.07-4.829-5.8-4.209-1.11-.66-2.41-1.13-3.3-2.01-5.16-5.04-10.27-10.12-15.27-15.31-.76-.79-1.19-2.21-1.21-3.35-.05-3.27-1.88-5.552-4.78-5.532zm20.7.221c-2.83.1-4.73 2.15-4.56 4.92.17 2.78 2.43 4.56 5.42 4.57 1.14.01 2.611.28 3.371 1.01 5.28 5.07 10.43 10.26 15.55 15.49.81.83 1.21 2.06 1.33 2.27-.17 4.65 1.479 6.599 4.599 6.619 2.74.01 4.851-2.02 4.851-4.69 0-2.76-2.51-4.759-5.61-4.789-1.14-.01-2.57-.4-3.35-1.15a536.573 536.573 0 01-15.29-15.26c-.84-.88-1.33-2.42-1.38-3.68-.14-3.4-1.85-5.42-4.93-5.31zm70.458.02a5.198 5.198 0 00-.518.01c-2.64.18-4.73 2.57-4.48 5.12.26 2.63 2.81 4.59 7.01 4.2.26.15 1.61.63 2.53 1.54 7.95 7.85 15.88 15.719 23.67 23.739 1.07 1.1 1.68 2.97 1.84 4.56.32 3.05 1.8 4.66 4.75 4.83 2.59.15 4.83-2.198 4.81-4.798-.02-2.71-2.06-4.902-4.92-4.532-2.29.3-3.519-.67-4.919-2.08-7.77-7.86-15.651-15.619-23.361-23.539-1-1.02-1.61-2.731-1.79-4.191-.346-2.785-2.09-4.778-4.622-4.86zm-43.297.01c-2.72-.01-4.851 2.12-4.801 4.77.06 2.93 2.4 4.859 6.97 4.579.15.09 1.42.54 2.27 1.39 8.03 7.94 16.02 15.91 23.91 23.98.8.82 1.21 2.41 1.16 3.61-.11 3.04 1.46 5.37 4.24 5.67 2.68.3 4.98-1.61 5.2-4.29.25-3.12-1.6-4.909-5.03-5.189-1.17-.09-2.59-.491-3.39-1.271-8.3-8.16-16.53-16.4-24.7-24.7-.68-.7-1.05-1.999-1.05-3.019-.01-3.26-1.85-5.52-4.78-5.53zm57.77 0c-2.73-.01-4.79 2.05-4.77 4.77.01 2.95 2.3 4.87 5.98 4.04 1.08.63 2.36 1.07 3.22 1.92 8.03 7.93 16.02 15.91 23.91 23.98.8.82 1.22 2.4 1.17 3.6-.12 3.04 1.44 5.37 4.22 5.68 2.67.3 4.989-1.61 5.209-4.28.25-3.1-1.63-4.921-5.02-5.201-1.17-.1-2.59-.49-3.39-1.27a2054.983 2054.983 0 01-24.71-24.699c-.68-.69-1.05-1.99-1.05-3.01-.01-3.26-1.84-5.51-4.77-5.53zm-43.141.01c-2.73-.04-4.8 2.04-4.75 4.77.05 3.02 2.19 4.8 6.78 4.61.15.09 1.34.5 2.15 1.29 8.13 8.03 16.22 16.1 24.22 24.25.74.76 1.15 2.21 1.1 3.31-.14 3.23 1.611 5.65 4.521 5.77a4.77 4.77 0 005-4.62c.11-2.8-1.95-4.59-5.08-4.91-1.38-.14-3.01-.68-3.97-1.62-8.08-7.9-16.062-15.91-23.972-23.98-.76-.78-1.208-2.2-1.228-3.33-.07-3.38-1.752-5.5-4.772-5.54zm14.66 0c-2.77-.04-4.84 1.97-4.84 4.69 0 2.78 2.161 4.63 5.201 4.82 1.27.08 2.84.45 3.69 1.28 8.17 7.99 16.24 16.091 24.27 24.221.81.82 1.21 2.038 1.32 2.238-.24 4.54 1.53 6.71 4.52 6.74 2.61.05 4.9-2.18 4.9-4.76 0-2.75-2.18-4.529-5.26-4.759-1.37-.1-3.001-.64-3.951-1.56a1298.287 1298.287 0 01-23.47-23.47c-.99-1.01-1.589-2.78-1.679-4.24-.21-3.19-1.771-5.16-4.701-5.2zm-76.99 1.29c1 1.47 2.101 2.39 2.021 3.2-.07.83-1.301 1.55-2.031 2.32-.79-.83-2.02-1.57-2.23-2.53-.15-.64 1.15-1.61 2.24-2.99zm20.71.11c1.08 1.46 2.37 2.5 2.21 3.17-.24.97-1.54 1.68-2.39 2.5-.69-.85-1.87-1.66-1.94-2.55-.06-.8 1.09-1.7 2.12-3.12zm26.96.07c1.04 1.4 2.21 2.3 2.17 3.11-.06.89-1.24 1.72-1.94 2.57-.85-.84-2.119-1.571-2.379-2.561-.17-.66 1.108-1.69 2.148-3.12zm166.19.16c.94-.08 1.958.95 3.638 1.89-1.52 1.24-2.439 2.53-3.119 2.43-.98-.16-1.8-1.361-2.69-2.111.72-.79 1.39-2.149 2.17-2.209zm-108.29.69c.73.81 1.98 1.58 2.04 2.43.06.84-1.09 1.769-2.07 3.169-1.06-1.36-2.38-2.33-2.24-3.04.17-.96 1.46-1.72 2.27-2.56zm-43.05.019c.72.83 1.99 1.662 2.01 2.512.02.84-1.22 1.71-2.28 3.02-1.02-1.35-2.36-2.411-2.19-3.081.24-.96 1.59-1.651 2.46-2.451zm14.72.127c.668.133 1.625 1.203 2.93 2.113-1.43 1.12-2.32 2.34-3.27 2.4-.75.05-2.33-1.5-2.21-2.07.2-.98 1.32-2.18 2.28-2.44a.589.589 0 01.27-.003zm13.7.014c.66-.16 1.67 1.18 3 2.23-1.35 1.06-2.24 2.29-3.06 2.24-.83-.04-1.6-1.34-2.4-2.09.81-.84 1.5-2.15 2.46-2.38zm70.26 2.38c.6-.13 1.53 1.31 2.83 2.52-1.45.93-2.43 2.05-3.19 1.91-.86-.15-1.53-1.42-2.28-2.21.87-.79 1.65-2.01 2.64-2.22zm121.51.83c-1.137.057-2.332.62-3.372 1.56-1.96 1.78-1.98 4.96-.02 6.76 2.06 1.89 4.81 2.25 6.41.12 1.89-2.52 4.081-2.39 6.551-2.37 2.89.02 5.77 0 8.66 0 3.24-.01 6.5.15 9.74-.05 2.73-.17 4.66.72 6.6 2.69 11.38 11.57 22.679 23.22 34.479 34.34 4.35 4.1 6.421 8.25 5.611 14.06-.3 2.17.34 4.31-2.22 5.93-2.21 1.4-1.88 4.87.02 6.67 1.89 1.79 5.029 1.72 6.839-.15 1.73-1.78 1.8-5.179-.37-6.729-1.91-1.36-2.118-2.9-2.028-4.89.09-2.16-.162-4.35.048-6.49.27-2.77-.83-4.67-2.76-6.58-13.16-13.02-26.17-26.18-39.35-39.17-1.11-1.09-3.08-1.78-4.68-1.83-6.97-.19-13.95-.111-20.92-.071-2.39.02-4.42.07-6.21-2.32-.81-1.085-1.89-1.535-3.027-1.479zm.198 2.7c.49-.13 2.071 1.47 2.031 2.22-.06.96-1.261 1.85-2.361 3.27-1.06-1.47-2.35-2.53-2.16-3.18.27-.98 1.48-2.04 2.49-2.31zm73.72 3.16c.82-.03 1.68 1.13 3.08 2.19-1.46 1.04-2.51 2.3-3.14 2.11-.96-.28-1.64-1.56-2.43-2.41.83-.67 1.64-1.86 2.49-1.89zm39.642 5.21c.79-.09 1.72 1.01 3.19 1.99-1.41 1.11-2.36 2.39-3.01 2.25-.95-.19-1.69-1.42-2.52-2.2.77-.72 1.49-1.94 2.34-2.04zm-98.994 3.45c-1.236-.002-2.516.51-3.486 1.45-1.9 1.85-1.931 4.97-.051 6.81 1.95 1.91 4.95 1.619 7.1-.301 1.08-.97 2.651-1.648 4.091-1.898 1.87-.32 3.86.088 5.76-.122 2.77-.32 4.69.732 6.6 2.702 6.95 7.17 13.909 14.339 21.209 21.139 3.37 3.14 4.971 6.4 4.431 10.96-.35 2.96.51 5.911-2.63 8.321-2.11 1.62-1.381 4.58.689 6.35 1.94 1.66 4.29 1.6 6.25-.16 1.98-1.78 2.51-4.621.62-6.061-3.5-2.68-2.51-6.07-2.69-9.06-.07-8.48.57-6.33-2.77-9.74-6.41-6.52-13.3-12.611-19.27-19.511-4.92-5.68-10.35-8.44-17.78-7.21-1.95.32-3.49-.108-4.85-2.028-.796-1.12-1.987-1.638-3.223-1.641zm-145.78 1.01c.66-.15 1.66 1.16 3.09 2.27-1.49 1.07-2.43 2.25-3.38 2.25-.75 0-2.259-1.62-2.109-2.17.26-.98 1.419-2.12 2.399-2.35zm103.22 1.15c.76.75 2.02 1.44 2.13 2.27.11.8-.99 1.749-1.93 3.199-1.17-1.34-2.531-2.27-2.411-2.92.18-.96 1.42-1.709 2.21-2.549zm42.189.49c.96-.03 1.96 1.07 3.51 2.04-1.42 1.19-2.36 2.53-3.04 2.41-.98-.17-1.78-1.41-2.65-2.19.72-.81 1.43-2.24 2.18-2.26zm89.61 3.43c.75.92 1.92 1.77 2.08 2.78.1.66-1.25 1.56-2.38 2.83-.96-1.39-2.18-2.41-2.01-3.08.25-.97 1.49-1.7 2.31-2.53zm-361.04 1.54c.85-.03 1.75 1.16 3.11 2.18-1.34 1.05-2.34 2.38-3.02 2.23-.95-.21-1.66-1.52-2.48-2.36.79-.73 1.57-2.02 2.39-2.05zm20.98.08c.6-.15 1.591 1.27 2.901 2.41-1.37.98-2.29 2.14-3.08 2.05-.85-.09-1.57-1.359-2.35-2.109.83-.83 1.55-2.112 2.53-2.352zm-42.78.015a5.304 5.304 0 00-.52.045c-2.86.39-4.149 2.18-4.039 5.01.11 2.76 2.18 4.41 5 4.56 1.44.08 3.02.66 4.21 1.49 1.55 1.08 2.69 2.73 4.15 3.98 2.06 1.76 2.87 3.78 2.81 6.57-.19 8.77-.07 17.54-.07 26.32 0 9.25.08 18.51-.08 27.76-.03 1.47-.79 3.26-1.81 4.33-4.88 5.13-9.89 10.16-15.04 15.02-1.12 1.06-2.99 1.639-4.58 1.809-3.02.32-5.14 2.14-4.93 5.02.2 2.82 1.85 4.38 4.66 4.5 2.74.13 4.75-2.28 4.93-5.11.09-1.45.57-3.2 1.52-4.2 4.71-4.98 9.51-9.88 14.529-14.53 2.42-2.24 3.301-4.62 3.271-7.86-.13-16.59-.35-33.18.09-49.76.15-5.94-1.29-10.36-5.93-13.99-2.04-1.59-4.09-3.27-3.56-6.75.384-2.512-2.026-4.312-4.611-4.214zm181.6.002a4.73 4.73 0 00-3.53 1.492c-1.92 2.07-1.659 4.892.551 7.022.7.67 1.67 1.549 1.7 2.369.26 6.4 1.12 12.89-5.64 17.22-7.74 4.95-10.35 12.37-8.679 21.28.31 1.63.84 3.53 1.93 4.66 7.01 7.25 13.989 14.56 21.439 21.35 4.16 3.8 6.31 7.77 5.52 13.42-.36 2.51.18 4.881-2.47 6.871-2.15 1.61-1.71 4.38.36 6.33 1.92 1.82 4.17 1.93 6.18.24 2.13-1.79 2.81-4.68.74-6.3-3.36-2.63-2.42-5.87-2.67-9.73 1.32-4.45-1.191-7.831-4.711-11.16-7.59-7.18-14.879-14.69-22.199-22.15-.91-.93-1.64-2.36-1.81-3.65-.98-7.22-.05-13.77 6.72-18.23 6.71-4.41 8.87-10.76 7.76-18.57-.17-1.2.75-2.859 1.66-3.839 2.08-2.23 2.51-5.02.67-7.05a4.797 4.797 0 00-3.521-1.573zm232.14.34a4830.296 4830.296 0 01-36.43 36.424c-.81.81-2.39 1.19-3.61 1.17-2.97-.06-5.36 1.649-5.58 4.379-.23 2.79 1.63 4.89 4.43 5.04 3.06.16 4.69-1.569 5.09-4.769.18-1.48.8-3.22 1.82-4.25 11.382-11.55 22.883-22.983 34.28-34.525v-3.469zm-413.45 2.232c.81 0 1.61 1.22 2.94 2.34-1.47.98-2.58 2.231-3.18 2.021-.95-.32-1.55-1.64-2.3-2.53.85-.66 1.69-1.83 2.54-1.83zm181.49.022c.53-.11 1.95 1.43 1.99 2.26.03.8-1.2 1.658-2.25 2.958-1.06-1.34-2.41-2.39-2.23-3 .27-.95 1.49-1.998 2.49-2.218zm-74.08 5.51c.96 1.47 2.06 2.408 1.98 3.208-.08.83-1.34 1.531-2.08 2.291-.79-.83-2.02-1.58-2.21-2.54-.13-.65 1.19-1.6 2.31-2.96zm145.88.23c-1.29 1.33-3.38 2.519-3.69 4.039-.31 1.61.621 4.43 1.881 5.11 1.44.78 4.61.51 5.65-.6 1.67-1.78 3.24-2.05 5.32-2.03 6.5.05 12.99.04 19.49 0 1.83-.01 3.28.07 4.57 1.91 1.68 2.38 5.029 2.27 6.939.26 1.87-1.96 1.801-5-.149-6.8-2.04-1.88-4.95-1.53-7.08.49-.96.92-2.46 1.75-3.73 1.79-6.49.18-12.99.081-19.49.081-2.24 0-4.52.429-5.87-2.291-.41-.83-2.001-1.069-3.841-1.959zm-160.83.648c.83.82 2.078 1.52 2.328 2.48.16.62-1.15 1.632-2.25 3.052-1.01-1.43-2.129-2.322-2.049-3.112.08-.86 1.27-1.62 1.97-2.42zm29.699.022c.7.84 1.9 1.66 1.94 2.53.03.77-1.22 1.609-2.35 2.929-1.04-1.44-2.341-2.54-2.131-3.14.34-.95 1.64-1.56 2.54-2.32zm-44.051.139c.68-.17 1.71 1.11 3.18 2.17-1.46 1.02-2.36 2.15-3.17 2.09-.89-.05-1.7-1.21-2.55-1.89.84-.84 1.56-2.13 2.54-2.37zm57.83.01c.68-.15 1.671 1.16 3.111 2.27-1.5.98-2.43 2.07-3.25 1.99-.88-.08-1.65-1.27-2.47-1.98.86-.81 1.619-2.07 2.609-2.28zm236.97.2c.71-.09 1.59 1.251 2.99 2.481-1.65.93-2.7 1.988-3.65 1.908-.76-.06-1.4-1.529-2.09-2.369.91-.72 1.77-1.91 2.75-2.02zm-337.27.93c-2.76-.14-5.231 1.89-4.801 4.58.42 2.63-.85 3.94-2.4 5.43-1.73 1.67-3.55 3.28-5.04 5.15-.88 1.11-1.7 2.65-1.71 4-.13 12.38-.14 24.77 0 37.15.02 1.48.8 3.28 1.83 4.36 5.23 5.47 10.71 10.7 15.96 16.16.92.95 1.52 2.56 1.61 3.91.2 3.23 1.74 5.23 4.61 5.32 2.68.08 4.9-1.99 4.98-4.63.08-2.79-2.32-4.71-5.56-4.83-1.26-.05-2.8-.51-3.67-1.35a484.42 484.42 0 01-15.55-15.53c-1.02-1.08-1.75-2.87-1.8-4.36-.21-5.76-.09-11.54-.09-17.31-.01-4.09.39-8.22-.09-12.24-.72-5.95 1.14-10.43 5.9-13.98 1.76-1.32 2.88-3.1 5.72-2.55 2.73.52 4.681-1.87 4.591-4.72-.09-2.87-1.64-4.42-4.49-4.56zm-45.82.02c-2.92-.1-4.871 1.67-4.951 4.49-.09 3.07 2 4.86 5.31 4.96 1.23.03 2.661.54 3.621 1.31 1.78 1.42 3.17 3.29 4.91 4.76 1.81 1.53 2.44 3.27 2.37 5.63-.16 5.52-.051 11.04-.051 16.57-.01 3.84-.419 7.74.101 11.52.86 6.37-1.281 11.1-6.341 14.84-1.59 1.17-2.59 2.77-5.19 2.22-2.65-.55-4.83 1.94-4.82 4.6.01 2.68 2.171 4.891 4.771 4.881 2.65-.02 5.24-2.23 4.66-4.83-.6-2.63.83-3.74 2.21-5.15 1.42-1.46 2.789-3.011 4.369-4.281 2.07-1.67 2.631-3.68 2.591-6.28-.14-8.76-.59-17.579.09-26.289.66-8.4-.95-15.26-8.12-20.3-.72-.5-1.101-1.971-1.061-2.971.13-3.4-1.47-5.58-4.47-5.68zm264.24 1.17c.82-.03 1.69 1.2 3.02 2.26-1.36 1.05-2.411 2.4-3.051 2.22-.96-.26-1.63-1.59-2.43-2.46.82-.72 1.62-1.99 2.46-2.02zm36.26.03c.76.06 2 1.54 1.94 2.31-.07.82-1.4 2.18-2.16 2.17-.94-.01-1.86-1.2-3.55-2.45 1.8-1.04 2.83-2.11 3.77-2.03zm-300.92 1.11c.85.8 2.129 1.5 2.379 2.46.16.62-1.189 1.63-2.319 3.03-.99-1.41-2.13-2.31-2.07-3.1.07-.85 1.29-1.6 2.01-2.39zm45.9.02c.83.79 2.11 1.46 2.36 2.4.17.65-1.07 1.68-2.09 3.11-1.07-1.42-2.231-2.28-2.211-3.1.03-.82 1.25-1.61 1.94-2.41zm207.27 9.748c-2.226.152-3.713 1.424-4.203 3.883-.53 2.66 1.201 5.54 3.931 5.33 3.48-.26 5.099 1.799 7.059 3.789 2.61 2.65 5.11 5.45 7.97 7.82 1.42 1.17 3.511 2.1 5.311 2.12 17.44.16 34.87.099 52.31.089 1.92 0 3.45.15 5 1.89 1.01 1.14 3.75 1.482 5.41 1.042 1.32-.35 2.18-2.43 3.58-4.16-1.47-1.7-2.36-3.67-3.72-4.1-1.53-.47-4.18-.152-5.12.908-1.6 1.82-3.19 2.06-5.29 2.05-15.52-.04-31.03-.25-46.54.1-5.45.12-9.76-.829-13.13-5.369-1.7-2.3-4.17-4-6-6.22-.82-1-1.28-2.58-1.29-3.91-.02-2.9-1.53-5.08-4.28-5.26a7.31 7.31 0 00-.998-.002zm-21.143.142c.65.85 1.81 1.69 1.81 2.54 0 .79-1.22 1.59-2.36 2.92-.97-1.48-2.2-2.59-1.98-3.18.33-.94 1.64-1.54 2.53-2.28zm-14.016.028c.682.142 1.665 1.25 2.916 2.142-1.35 1.05-2.211 2.25-3.041 2.24-.87-.02-1.719-1.21-2.569-1.89.79-.88 1.46-2.23 2.42-2.49a.588.588 0 01.274-.002zm-14.434.062c.78.1 1.4 1.5 2.1 2.33-.92.72-1.79 1.88-2.78 1.99-.71.07-1.572-1.27-3.012-2.55 1.68-.87 2.752-1.88 3.692-1.77zm-128.17.094c-1.209-.124-2.41.267-3.49 1.227-2.18 1.94-2.26 4.98-.17 7 1.93 1.87 4.85 1.499 7.07-.461 1.08-.96 2.729-1.75 4.139-1.79 6.72-.19 13.44-.21 20.15 0 1.51.04 2.95 1.38 4.49 1.9 1.7.58 3.69 1.58 5.19 1.15 1.47-.42 2.489-2.41 4.179-4.22-1.67-1.86-2.66-3.89-4.11-4.33-1.49-.45-3.489.54-5.189 1.12-1.53.52-2.95 1.87-4.44 1.92-6.95.21-13.92.179-20.87.019-1.17-.03-2.55-.82-3.42-1.68-1.105-1.095-2.32-1.731-3.53-1.855zm204.16.904c-1.149-.032-2.354.432-3.38 1.342-2.01 1.78-2.418 4.2-.628 6.45 1.75 2.19 4.61 2.93 6.29.93 2.48-2.96 5.36-2.52 8.38-2.53 5.53-.03 11.07.01 16.6-.02 2.06-.01 3.759.06 5.389 1.96.91 1.06 3.561 1.37 5.101.91 1.35-.41 2.25-2.35 3.75-4.09-1.47-1.78-2.311-3.68-3.691-4.18-1.42-.54-4.219-.36-4.889.59-1.92 2.7-4.37 2.44-6.98 2.43-5.77-.02-11.55-.01-17.32 0-2.13 0-3.98.02-5.58-2.15-.8-1.08-1.893-1.61-3.041-1.642zm103.74 1.121c.99 1.53 2.11 2.52 2.09 3.48-.02.76-1.44 1.491-2.24 2.231-.8-.86-2.051-1.65-2.231-2.63-.12-.69 1.21-1.65 2.38-3.08zm-129.55.192c.81-.03 1.67 1.12 3.08 2.18-1.46 1.03-2.5 2.27-3.14 2.09-.94-.26-1.6-1.541-2.38-2.391.81-.67 1.61-1.85 2.44-1.88zm-178.64.138c.74.89 1.93 1.71 2.08 2.68.11.7-1.17 1.62-2.4 3.14-.94-1.7-1.96-2.729-1.89-3.679.05-.76 1.42-1.43 2.21-2.14zm36.24.18c.66-.13 1.61 1.26 2.93 2.4-1.4.98-2.35 2.141-3.16 2.051-.83-.1-1.53-1.4-2.29-2.17.83-.82 1.57-2.1 2.52-2.28zm168.35 1.012c.64.84 1.821 1.7 1.781 2.5-.04.82-1.27 1.589-2.43 2.879-.92-1.45-2.12-2.57-1.9-3.19.32-.91 1.649-1.48 2.549-2.19zm35.88.129c.81-.03 1.66 1.12 3.04 2.17-1.46 1.03-2.498 2.28-3.148 2.1-.94-.26-1.592-1.551-2.362-2.411.82-.67 1.62-1.83 2.47-1.86zm-255.59 7.912c-.905.09-1.777.473-2.546 1.178-1.99 1.82-2.15 4.809-.35 6.769 1.95 2.13 4.94 1.87 7.32-.29 1-.91 2.53-1.7 3.84-1.72 8.3-.15 16.6-.08 24.9-.08 8.42 0 16.85-.099 25.25.111 1.6.03 3.6.71 4.71 1.81a3590.786 3590.786 0 0139.03 39.03c1.1 1.11 1.83 3.09 1.85 4.68.15 11.91.15 23.82 0 35.73-.02 1.4-.93 3.009-1.89 4.129-1.99 2.33-2.18 5.11-.1 7.09 1.9 1.8 5 1.69 6.81-.25 1.78-1.92 1.46-4.64-.31-6.81-1.01-1.24-1.93-2.98-1.95-4.5-.16-12.03.009-24.06-.171-36.09-.03-1.8-.86-4.04-2.11-5.31a3517.85 3517.85 0 00-40.049-40.06c-1.11-1.08-3.101-1.76-4.691-1.77-17.08-.12-34.16-.04-51.24-.15-1.29-.01-2.849-.77-3.809-1.68-1.38-1.313-2.985-1.97-4.494-1.819zm181.01.422c-2.277.066-4.04 1.66-4.364 4.076-.39 2.87 1.12 5.37 3.64 5.17 3.76-.3 5.31 2.15 7.39 4.1 2.46 2.3 4.941 4.6 7.141 7.13 1.82 2.09 3.84 2.81 6.6 2.8 21.4-.1 42.799-.05 64.199-.06 1.94 0 3.49.11 5 1.94.88 1.07 3.56 1.4 5.11.95 1.38-.4 2.31-2.33 3.91-4.09-1.55-1.79-2.49-3.831-3.95-4.321-1.5-.49-4.289-.049-5.109 1.041-1.53 2.03-3.19 2.08-5.25 2.08-17.19-.02-34.431-.78-51.561.26-11.27.68-19.72-2.24-26.25-11.301-1.07-1.48-2.12-2.419-1.63-4.649.57-2.61-1.01-4.59-3.87-5.06a5.375 5.375 0 00-1.006-.066zm-51.972 1.306c-1.289.037-2.602.575-3.442 1.53-1.84 2.09-1.89 4.43-.01 6.49 1.9 2.08 4.77 2.51 6.34.43 2.11-2.79 4.6-2.39 7.26-2.4 5.88-.01 11.77.01 17.65-.01 1.92 0 3.49.08 4.99 1.91.89 1.09 3.55 1.55 5.04 1.09 1.45-.45 2.44-2.431 4.01-4.151-1.55-1.86-2.43-3.86-3.78-4.29-1.55-.46-4.38-.14-5.15.93-1.63 2.24-3.52 2.1-5.65 2.1-6.12 0-12.25-.01-18.37.01-2.16.01-4.03.052-5.59-2.158-.745-1.05-2.01-1.517-3.298-1.48zm-128.19.78c.83.02 1.62 1.28 2.91 2.43-1.42.97-2.53 2.22-3.14 2.02-.93-.32-1.91-1.58-2.08-2.58-.09-.53 1.51-1.89 2.31-1.87zm180.06.34c.88.74 2.208 1.34 2.478 2.26.2.67-.999 1.75-1.949 3.24-1.11-1.34-2.31-2.15-2.32-2.97-.01-.83 1.14-1.69 1.79-2.53zm-52.15 1.39c.88.76 2.18 1.38 2.48 2.32.2.64-1 1.73-1.99 3.25-1.11-1.38-2.281-2.21-2.281-3.02.01-.85 1.15-1.7 1.79-2.55zm36.67.125c.658.104 1.656 1.136 2.969 1.984-1.35 1.14-2.14 2.342-2.96 2.362-.81.01-1.65-1.16-2.48-1.81.72-.89 1.301-2.23 2.211-2.52a.546.546 0 01.26-.016zm157.82 1.926c.83-.06 1.749 1.07 3.209 2.09-1.44 1.09-2.449 2.369-3.139 2.209-.97-.22-1.7-1.49-2.54-2.32.82-.71 1.6-1.92 2.47-1.98zm-17.971.138c.99 1.55 2.11 2.55 2.07 3.5-.03.78-1.45 1.5-2.26 2.24-.78-.88-2.011-1.68-2.191-2.67-.13-.69 1.2-1.63 2.38-3.07zm-31.62.43c1.17 1.26 2.61 2.202 2.49 2.852-.18.97-1.45 1.74-2.26 2.6-.79-.76-2.1-1.442-2.21-2.282-.1-.81 1.05-1.78 1.98-3.17zm17.22.631c.69-.14 1.661 1.18 3.111 2.33-1.53 1.02-2.501 2.17-3.451 2.17-.76 0-2.25-1.66-2.09-2.19.28-.98 1.46-2.12 2.43-2.31zm-300.6.84c-2.85-.06-4.98 2.19-4.79 5.07.18 2.83 2.38 4.52 5.45 4.45 1.02-.02 2.369.199 3.039.849 5.35 5.16 10.61 10.43 15.82 15.74.78.8 1.15 2.01 1.21 2.13-.27 4.49 1.641 6.821 4.651 6.731 2.81-.06 4.47-1.57 4.68-4.42.23-3.13-1.74-4.84-5.14-5.07-1.37-.09-3.011-.62-3.971-1.54-5.04-4.8-9.96-9.72-14.76-14.76-.9-.94-1.409-2.58-1.479-3.92-.15-3.08-1.86-5.2-4.71-5.26zm.117 2.547c.671.109 1.67 1.132 2.992 1.972-1.37 1.12-2.19 2.32-3.01 2.32-.86 0-1.73-1.148-2.59-1.788.77-.88 1.39-2.2 2.34-2.49a.588.588 0 01.268-.014zm24.934 3.357c-1.116-.015-2.291.47-3.371 1.356-2.15 1.75-2.299 4.68-.379 6.71 1.95 2.07 4.81 2.55 6.33.46 2.09-2.88 4.59-2.45 7.25-2.46 5.16-.02 10.33-.01 15.5-.01 6.13 0 12.26-.08 18.42.07 1.28.03 2.87.58 3.76 1.46 8.49 8.34 16.899 16.75 25.199 25.27.95.97 1.55 2.69 1.58 4.07.15 7.33.16 14.66-.01 21.99-.03 1.32-.83 2.85-1.74 3.85-2.08 2.27-2.4 4.98-.43 7.05 1.79 1.89 4.961 1.95 6.81.13 1.95-1.92 1.711-4.93-.179-7.11-.97-1.12-1.85-2.73-1.89-4.14-.2-7.33.03-14.67-.23-21.99-.07-1.91-.9-4.23-2.2-5.58-8.27-8.55-16.71-16.94-25.25-25.22-1.2-1.16-3.24-2.02-4.91-2.04-12.02-.17-24.041-.12-36.061-.07-2.1.01-3.71-.2-5.18-2.15-.845-1.114-1.903-1.63-3.02-1.646zm-72.422.957c-1.547-.05-3.323.342-3.998 1.19-1.49 1.87-2.982 1.988-4.932 1.988H-.009v2.453c1.347.005 2.693.002 4.04.008 1.41.01 2.79 1.29 4.25 1.73 1.81.55 3.851 1.459 5.511 1.059 1.36-.33 2.309-2.34 3.809-4.02-1.43-1.76-2.289-3.839-3.639-4.209a6.2 6.2 0 00-1.422-.199zm71.871.569c1.23 1.51 2.52 2.41 2.42 3.13-.13.96-1.33 1.78-2.07 2.66-.8-.71-2.19-1.37-2.25-2.14-.07-.95.97-1.98 1.9-3.65zm129.3 1.14c-1.261-.041-2.479.394-3.424 1.37-1.8 1.85-1.72 5.08.16 6.8 2 1.82 5.02 1.44 7.12-.46 1.07-.97 2.7-1.8 4.1-1.84 6.59-.19 13.19-.06 19.79-.1 1.95-.01 3.44.23 4.99 1.94 1.03 1.14 3.728 1.52 5.408 1.11 1.3-.32 2.191-2.38 3.631-4.12-1.46-1.74-2.34-3.8-3.65-4.13-1.66-.41-3.7.47-5.51 1.01-1.47.43-2.82 1.67-4.25 1.71-6.83.19-13.68.18-20.51 0-1.42-.04-3.04-.86-4.17-1.8-1.12-.93-2.424-1.448-3.685-1.49zm-201.79.299c.75.74 2.001 1.41 2.111 2.23.11.78-.981 1.731-1.931 3.211-1.14-1.35-2.46-2.27-2.33-2.9.19-.95 1.38-1.701 2.15-2.541zm421.76 1.092c-20.75.105-41.5.142-62.25.02-3.49-.02-6.15.709-8.5 3.449-2.73 3.18-5.76 6.15-8.93 8.91-1.29 1.13-3.279 2.04-4.959 2.05-26.48.13-52.95.11-79.42.01-1.29-.01-2.84-.82-3.83-1.74-2.17-2.03-5.1-2.43-7.1-.6-1.85 1.7-1.96 4.97-.22 6.85 1.88 2.03 4.75 1.81 7.11-.1 1.23-.99 2.99-1.83 4.53-1.85 13.24-.14 26.47-.08 39.71-.08 8.67 0 17.33.01 25.99.01 5.65-.01 11.949 1.47 16.779-.54 4.95-2.07 8.36-7.7 12.67-11.51 1.36-1.21 3.45-2.25 5.21-2.26 21.07-.161 42.14-.163 63.21-.078v-2.541zm-183.76 1.19c.51-.16 2.04 1.24 2.16 2.07.11.77-1.03 1.728-2 3.148-1.19-1.28-2.63-2.239-2.49-2.799.25-.99 1.35-2.11 2.33-2.42zm-35.979.028c.55-.12 1.979 1.35 2.049 2.18.06.78-1.14 1.672-2.19 3.022-1.11-1.34-2.48-2.381-2.31-2.961.28-.95 1.471-2.03 2.451-2.24zm129.47.74c.98.28 2.13 1.39 2.34 2.35.13.62-1.27 1.581-2.43 2.881-.96-1.4-2.11-2.34-2.02-3.13.09-.83 1.6-2.25 2.11-2.1zm64.938 5.6c-1.224.043-2.464.375-2.877.98-1.8 2.64-4.12 2.37-6.58 2.37-3.85-.01-7.761.42-11.541-.09-8.32-1.11-15 1.111-19.93 8.131-1.09 1.55-2.52 3-4.1 4.02-1.68 1.09-3.729 2.27-5.619 2.28-40.43.13-80.85.12-121.28.01-1.62-.01-3.468-1.01-4.808-2.06-2.15-1.69-4.932-2-6.862-.23-1.88 1.74-2.02 5.04-.15 6.8 2.18 2.05 4.81 2.26 6.67-.02 1.57-1.93 3.25-2.02 5.32-2.02 38.62.02 77.241-.14 115.86.17 6.76.06 12.11-1.09 16.23-6.71 1.62-2.2 3.73-4.11 5.89-5.82 1.29-1.02 3.07-1.911 4.66-1.961 7.09-.21 14.199-.2 21.289 0 1.52.05 2.961 1.391 4.521 1.871 1.71.54 3.73 1.43 5.22.95 1.46-.48 2.439-2.48 4.009-4.24-1.62-1.82-2.53-3.7-3.92-4.19-.54-.188-1.267-.266-2.002-.24zm-.057 2.35c.88.01 1.73 1.16 2.6 1.81-.78.89-1.43 2.21-2.4 2.51-.65.2-1.74-1.06-3.24-2.07 1.38-1.09 2.22-2.27 3.04-2.25zm-308.94.514a4.717 4.717 0 00-3.463 1.418c-1.94 1.99-2.19 4.228-.43 6.478 1.62 2.08 5.06 2.6 6.64.49 1.85-2.47 4.07-2.429 6.57-2.379 2.16.04 4.33-.02 6.49.01 5.28.07 11.17-1.27 15.66.65 4.63 1.99 8.05 7.02 11.67 11.02 1.28 1.41 2.17 3.68 2.24 5.59.26 6.85.06 13.711.11 20.561.02 1.97-.149 3.519-2.059 4.899-2.24 1.63-2.07 4.86-.07 6.66 2.08 1.87 4.36 1.93 6.52.16 2.01-1.65 2.35-5.09.22-6.69-2.24-1.68-2.27-3.649-2.23-5.939.06-3.37.019-6.73.019-10.1 0-3.61.24-7.24-.1-10.82-.17-1.84-.95-3.95-2.16-5.3-3.52-3.94-7.32-7.64-11.189-11.24-1.01-.94-2.651-1.64-4.021-1.67-7.45-.16-14.9-.09-22.36-.07-1.91.01-3.519.06-4.869-2-.745-1.14-1.943-1.696-3.187-1.727zm-.242 1.646c1.06 1.44 2.34 2.46 2.18 3.15-.22.95-1.51 1.661-2.35 2.481-.7-.83-1.9-1.62-1.95-2.49-.05-.83 1.1-1.72 2.12-3.14zm162.79.41c1.08 1.38 2.29 2.251 2.24 3.051-.04.83-1.29 1.6-2.02 2.39-.85-.79-2.11-1.46-2.4-2.42-.17-.59 1.13-1.63 2.18-3.02zm-176.62 5.612c.81-.09 1.77 1.078 3.19 2.068-1.34 1.11-2.311 2.46-2.971 2.33-1-.21-1.78-1.45-2.66-2.26.8-.77 1.561-2.038 2.441-2.138zm302.23 3.023c-1.24-.09-2.448.31-3.433 1.266-1.86 1.8-1.9 4.96-.08 6.8 2.01 2.03 4.76 1.78 7.06-.22 1.11-.96 2.73-1.81 4.15-1.85 6.84-.19 13.69-.19 20.53 0 1.4.04 2.73 1.309 4.16 1.799 1.69.58 3.65 1.58 5.15 1.17 1.49-.41 2.55-2.349 4.32-4.149-1.69-1.87-2.69-3.96-4.13-4.32-1.62-.41-3.671.64-5.471 1.24-1.35.45-2.579 1.68-3.879 1.71-6.96.17-13.931.17-20.891 0-1.32-.03-2.84-.86-3.86-1.77-1.114-1.005-2.386-1.586-3.626-1.676zm-259.79.432c-1.09.007-2.184.493-3.219 1.443-1.96 1.8-2.498 4.561-.558 6.041 3.14 2.39 2.56 5.35 2.58 8.36.04 5.28-.04 10.57.03 15.85.03 2.43-.031 4.48-2.321 6.29-2.21 1.75-1.76 4.39.21 6.33 2.01 1.96 4.4 1.93 6.46.09 2.11-1.88 2.51-4.73.38-6.3-2.69-1.99-2.48-4.309-2.46-6.899.01-2.64 0-5.282 0-7.922 0-2.4-.02-4.799.01-7.209.03-3.1-.61-6.15 2.64-8.59 1.99-1.5 1.34-4.26-.55-6.05-1.026-.97-2.112-1.441-3.202-1.434zm.153 1.753c.99 1.4 2.28 2.51 2.07 3.1-.32.94-1.58 1.942-2.58 2.102-.54.09-1.9-1.5-1.89-2.32 0-.81 1.27-1.611 2.4-2.881zm259.64.33c.81-.02 1.661 1.151 3.021 2.211-1.41 1.02-2.45 2.31-3.08 2.13-.95-.27-1.601-1.56-2.381-2.42.81-.69 1.61-1.9 2.44-1.92zm36.08 0c.81-.03 1.66 1.14 3.03 2.2-1.4 1.02-2.43 2.29-3.07 2.12-.93-.25-1.589-1.54-2.369-2.38.8-.69 1.579-1.91 2.409-1.94zm-195.35.721c.73-.1 1.65 1.19 3.01 2.28-1.49.97-2.45 2.09-3.28 1.99-.85-.1-1.56-1.371-2.34-2.131.87-.76 1.66-2.009 2.61-2.139zm-218.36 1.09c.97 1.48 2.049 2.4 1.959 3.2-.09.83-1.3 1.54-2.02 2.31-.8-.83-2.03-1.56-2.23-2.51-.14-.64 1.16-1.6 2.29-3zm96.61 1.37c-1.258-.046-2.527.39-3.412 1.32-1.9 2.01-2.45 4.75-.27 6.38 2.57 1.92 2.292 4.189 2.302 6.649.01 3.97.16 7.95-.06 11.91-.14 2.54.798 4.241 2.538 5.951 8.83 8.69 17.571 17.46 26.301 26.25.88.89 1.47 2.07 1.64 2.32-.28 4.68 1.42 6.769 4.48 6.809 2.9.06 4.81-1.779 4.8-4.629-.01-3.06-2.15-4.79-5.45-4.82-1.21-.01-2.7-.561-3.56-1.39-6.04-5.86-11.49-12.43-18.01-17.67-8.35-6.71-12.1-14.59-10.33-25.19.37-2.2.08-4.19 2.32-5.91 2.1-1.61 1.881-4.31.071-6.42-.85-.99-2.1-1.516-3.36-1.56zm-.082 1.589c1.03 1.42 2.162 2.3 2.112 3.09-.06.84-1.261 1.59-1.961 2.38-.83-.8-2.09-1.479-2.35-2.429-.17-.62 1.12-1.631 2.2-3.041zm-66.082 1.613c-1.247.013-2.491.483-3.396 1.408-1.95 2-1.972 5.25.479 6.93 1.87 1.28 1.94 2.729 1.89 4.549-.05 2.04-.01 4.081-.01 6.121 0 1.44-.16 2.899.03 4.309.52 3.64-.85 6.211-3.51 8.761-8.24 7.89-16.21 16.05-24.25 24.14-1.38 1.39-2.56 2.43-4.89 2.09-2.76-.4-4.88 1.95-4.89 4.58-.01 2.57 2.29 5.02 4.82 4.82 2.88-.23 4.89-1.82 4.56-4.88-.26-2.4.86-3.72 2.36-5.2 8.78-8.7 17.55-17.43 26.19-26.27 1.02-1.06 1.7-2.87 1.77-4.36.23-4.79-.051-9.61.179-14.4.07-1.43.88-3.03 1.83-4.15 1.9-2.23 2.17-5.21.25-7.11-.915-.905-2.165-1.35-3.412-1.338zm251.29 1.135c-2.502-.025-4.971 1.963-4.53 4.363.6 3.28-1.28 4.749-3.11 6.559-2.65 2.62-5.15 5.411-7.95 7.861-1.13.99-2.87 1.789-4.34 1.809-12.39.14-24.78.14-37.17 0-1.42-.01-3.05-.878-4.19-1.819-2.29-1.89-5.17-2.08-7.1-.08-1.82 1.89-1.729 5.02.201 6.8 2 1.85 4.898 1.44 7.068-.6.98-.92 2.521-1.74 3.811-1.75 12.63-.13 25.261.01 37.891-.18 1.8-.03 3.929-.98 5.299-2.19 3.6-3.18 6.84-6.76 10.29-10.11.74-.72 1.791-1.12 1.991-1.24 4.4.19 6.639-1.57 6.629-4.53-.01-2.8-1.47-4.52-4.29-4.86a4.566 4.566 0 00-.5-.033zM40.64 186.25c.66-.12 1.6 1.26 2.92 2.41-1.46.95-2.43 2.09-3.26 1.98-.86-.11-1.569-1.4-2.349-2.17.89-.79 1.69-2.03 2.69-2.22zm251.16 1.039c.77.76 2.07 1.47 2.15 2.3.08.81-1.09 1.741-2.07 3.131-1.13-1.3-2.52-2.26-2.39-2.91.2-.96 1.49-1.691 2.31-2.521zm-56.152 1.918c-1.222-.086-2.417.269-3.337 1.174-1.98 1.94-2.281 4.189-.551 6.459 1.64 2.16 5.031 2.819 6.601.699 1.98-2.68 4.39-2.36 6.95-2.36 6.01-.01 12.01.04 18.02-.02 1.98-.02 3.46.27 5 1.95.98 1.07 3.54 1.42 5.09.99 1.35-.38 2.26-2.299 3.88-4.129-1.59-1.82-2.559-3.92-3.949-4.26-1.63-.4-3.68.62-5.48 1.23-1.31.44-2.5 1.729-3.77 1.759-6.84.17-13.7.19-20.54-.03-1.51-.05-3.201-.98-4.411-1.99-1.03-.86-2.28-1.386-3.502-1.472zm-169.38.303c.95 1.5 2.04 2.47 1.95 3.29-.09.84-1.371 1.54-2.131 2.3-.77-.87-1.989-1.66-2.139-2.63-.1-.7 1.21-1.62 2.32-2.96zm333.11 1.044c-1.116.03-2.168.461-2.802 1.375-1.75 2.51-3.939 2.27-6.299 2.27-21.16 0-42.33-.059-63.49.111-2 .02-4.36 1.11-5.91 2.44-3.54 3.05-6.631 6.63-10.041 9.84-.82.78-2.169 1.319-3.299 1.359-3.42.12-5.55 1.821-5.52 4.771.02 2.67 2.22 4.85 4.83 4.8 2.78-.06 4.73-2.5 4.53-7.04.11-.18.61-1.42 1.47-2.33 2.98-3.14 5.93-6.34 9.21-9.14 1.46-1.25 3.67-2.28 5.55-2.29 21.28-.16 42.57-.08 63.85-.12 1.98-.01 3.51.2 4.9 2.05 1.69 2.25 4.78 2.099 6.64.12 1.93-2.06 2.01-4.31.26-6.5-.9-1.126-2.442-1.753-3.878-1.716zm-320.07.19c-2.661.109-4.954 2.25-4.373 4.865.55 2.5-.75 3.52-2.06 4.83-15.81 15.82-31.661 31.6-47.391 47.5-1.19 1.19-2 3.23-2.1 4.93-.28 4.67-.239 9.38-.039 14.06.11 2.52-.771 4.242-2.511 5.972-6.969 6.93-13.917 13.88-20.87 20.828v3.36a2189.14 2189.14 0 0118.5-18.26c5.12-4.99 9.14-9.78 7.11-17.39 0-1.69.211-3.4-.049-5.04-.59-3.84 1.1-6.42 3.75-9.04 15.24-15.03 30.29-30.24 45.51-45.29 1.06-1.05 2.92-1.659 4.46-1.769 2.9-.21 5.22-2.09 5.1-4.91-.12-2.81-1.63-4.46-4.5-4.64a5.204 5.204 0 00-.536-.006zm192.34.015c1.01 1.4 2.29 2.44 2.11 3.07-.27.97-1.539 1.65-2.389 2.46-.71-.84-1.93-1.64-1.99-2.52-.05-.78 1.18-1.65 2.27-3.01zm-36.199 1c.8-.1 1.75.98 3.24 1.92-1.35 1.15-2.28 2.5-2.91 2.36-.98-.19-1.76-1.4-2.63-2.18.76-.74 1.46-1.99 2.3-2.1zm-155.67 1.36c.73.78 1.97 1.521 2.03 2.351.06.81-1.09 1.71-2.11 3.14-1.08-1.39-2.38-2.38-2.23-3.03.22-.95 1.49-1.651 2.31-2.461zm320.13.125c.658.102 1.654 1.123 2.94 1.945-1.34 1.13-2.141 2.35-2.951 2.35-.84.01-1.69-1.159-2.54-1.819.75-.87 1.36-2.17 2.29-2.46a.559.559 0 01.261-.016zm-183.77 4.306c.69-.12 1.65 1.2 3 2.29-1.45 1.01-2.41 2.18-3.23 2.08-.87-.09-1.61-1.39-2.41-2.16.87-.79 1.66-2.03 2.64-2.21zM9.91 200.42c.71.82 1.93 1.61 1.99 2.48.05.81-1.12 1.709-2.16 3.129-1.04-1.43-2.298-2.44-2.138-3.12.22-.95 1.488-1.67 2.308-2.49zm19.25.55c-2.8-.03-4.56 2.11-4.68 5.22-.05 1.27-.41 2.84-1.23 3.7-5.06 5.28-10.27 10.43-15.51 15.55-.79.78-2 1.14-2.07 1.18-2.694-.177-4.604.489-5.7 1.69v6.004c.81.962 2.006 1.598 3.411 1.676 3.02.16 4.82-1.89 5.04-5.23.09-1.37.63-3.02 1.55-3.98 4.81-5.04 9.74-9.96 14.779-14.76.95-.91 2.591-1.41 3.951-1.51 3.02-.22 5.269-2.031 5.309-4.721.04-2.57-2.2-4.789-4.85-4.819zm.211 2.53c.6-.16 1.59 1.21 2.91 2.32-1.36 1.02-2.26 2.209-3.03 2.129-.82-.08-2.24-1.499-2.12-2.069.2-.96 1.3-2.14 2.24-2.38zm197.52 1.24c.82-.03 1.68 1.13 3.08 2.19-1.49.99-2.55 2.2-3.22 2.03-.96-.27-1.65-1.55-2.45-2.4.86-.66 1.71-1.79 2.59-1.82zm189.86 5.355c-1.48.013-3.198.535-3.97 1.405-1.43 1.62-2.77 1.85-4.59 1.85-16.71-.03-33.421.02-50.131-.08-2.58-.01-4.5.55-6.29 2.54a133.18 133.18 0 01-9.94 9.94c-1.18 1.07-3.06 1.929-4.62 1.939-21.64.13-43.28.12-64.92.01-1.29-.01-2.83-.83-3.8-1.75-2.23-2.12-4.96-2.5-7.05-.6-1.97 1.8-2.11 4.85-.31 6.76 1.94 2.06 4.76 1.87 7.1.041 1.34-1.05 3.21-2 4.84-2.01 20.2-.13 40.4-.25 60.59.04 5.35.08 9.47-1.041 12.78-5.401 1.95-2.56 4.379-4.82 6.899-6.84 1.44-1.15 3.47-2.189 5.25-2.209 16.47-.16 32.94-.071 49.41-.111 1.97 0 3.441.2 4.931 1.96.94 1.1 3.55 1.551 5.11 1.141 1.39-.36 2.349-2.31 3.959-4.05-1.51-1.82-2.429-3.97-3.889-4.41a4.832 4.832 0 00-1.36-.165zm-110 .455c.82-.1 1.782 1 3.272 1.95-1.4 1.12-2.35 2.44-3.06 2.33-.96-.15-1.75-1.41-2.61-2.2.79-.74 1.528-1.98 2.398-2.08zm109.39.67c1.1 1.38 2.42 2.35 2.28 3.03-.2.98-1.45 1.75-2.25 2.61-.75-.8-2.01-1.541-2.1-2.411-.08-.82 1.07-1.769 2.07-3.229zM90.89 213.3c-3.06.05-4.78 2.1-4.02 5.95-.65 1.09-1.12 2.36-1.99 3.25-7.94 8.02-15.91 16-23.98 23.88-.82.81-2.408 1.2-3.618 1.15-2.93-.13-5.36 1.519-5.66 4.259-.28 2.58 1.7 4.99 4.33 5.23 2.89.27 4.81-1.629 5.17-4.699.16-1.4.599-3.09 1.529-4.04 7.97-8.15 16.04-16.2 24.18-24.18.79-.78 2.201-1.251 3.351-1.311 3.49-.18 5.54-1.81 5.52-4.77-.02-2.72-2.1-4.769-4.81-4.719zm55.131.58c.77.84 2 1.59 2.17 2.54.12.65-1.211 1.57-2.351 2.9-.95-1.45-2.04-2.391-1.95-3.201.11-.82 1.371-1.498 2.131-2.238zm14.45.12c.79-.1 1.74 1.01 3.21 1.98-1.36 1.13-2.29 2.45-2.95 2.32-.96-.18-1.721-1.4-2.571-2.17.76-.76 1.46-2.01 2.31-2.13zm-32.562.11c.7-.14 1.66 1.14 3.08 2.24-1.5.98-2.44 2.08-3.25 2-.86-.09-1.61-1.31-2.41-2.03.85-.79 1.61-2.03 2.58-2.21zm-36.729 1.66c.54-.12 2.08 1.49 2.03 2.24-.07.96-1.3 1.83-2.44 3.26-1.02-1.5-2.26-2.57-2.06-3.24.27-.96 1.48-2.05 2.47-2.26zm-29.69 8.429c-2.98-.08-4.8 2.112-4.92 5.432-.05 1.25-.51 2.768-1.33 3.648-3.52 3.78-6.98 7.691-10.96 10.951-5.67 4.64-8.83 9.95-7.04 17.439 0 1.57-.181 3.15.019 4.69.57 3.93-1.029 6.64-3.809 9.4A18157.239 18157.239 0 00-.03 309.122v3.232c9.584-9.545 19.212-19.042 28.94-28.436 7.83-7.56 12.82-15.04 10.76-26.1-.16-.81-.21-1.74.02-2.51.48-1.61.8-3.53 1.87-4.67 4.95-5.25 10.069-10.33 15.279-15.32.97-.92 2.6-1.5 3.97-1.59 3.27-.21 5.221-1.72 5.301-4.61.07-2.78-1.87-4.85-4.62-4.92zm340.69.287c-1.426.023-3.107.555-3.737 1.395-1.45 1.93-3.02 1.939-4.92 1.939-10.1-.01-20.21.319-30.29-.121-6.18-.27-11.172.841-14.972 6.111-1.8 2.5-4.22 4.61-6.61 6.61-1.15.96-2.87 1.74-4.33 1.75-26.44.11-52.89.11-79.34 0-1.38 0-3-.94-4.08-1.91-2.1-1.89-4.818-2.27-6.798-.52-1.97 1.74-2.182 4.85-.442 6.78 1.89 2.1 5.202 2.359 6.942.019 1.4-1.9 2.96-2.02 4.92-2.02 26.09.03 52.17-.02 78.26.07 2.97.01 5.23-.639 7.27-2.939 2.94-3.32 6.109-6.48 9.439-9.41 1.29-1.13 3.29-2.02 4.98-2.05 11.78-.18 23.56-.08 35.34-.13 1.86-.01 3.17.309 4.59 1.889 1 1.11 3.58 1.67 5.08 1.23 1.48-.44 2.5-2.46 4.16-4.27-1.67-1.83-2.69-3.849-4.17-4.269-.37-.112-.817-.162-1.293-.154zM264.3 226.54c.89.76 2.23 1.39 2.51 2.33.21.69-.99 1.79-1.92 3.29-1.14-1.35-2.361-2.169-2.391-3.009-.02-.85 1.15-1.741 1.8-2.611zm137.75.111c.59-.16 1.59 1.25 2.89 2.37-1.38 1.01-2.3 2.19-3.09 2.11-.84-.09-1.56-1.38-2.33-2.14.83-.83 1.55-2.09 2.53-2.34zm-340.37.12c.69-.11 1.63 1.27 2.93 2.39-1.44.97-2.421 2.139-3.241 2.039-.87-.12-1.591-1.429-2.381-2.219.89-.79 1.691-2.04 2.691-2.21zm357.05.363c-1.1-.013-2.201.432-3.266 1.337-1.97 1.68-2.29 5.27-.12 6.66 2.49 1.59 2.26 3.62 2.26 5.84v5.05c0 2.16.299 4.38-.101 6.47-.36 1.96-.95 4.25-2.26 5.6-8.35 8.62-16.88 17.079-25.49 25.449-1.1 1.07-2.988 1.67-4.578 1.82-3.13.31-5.09 2.001-5 4.941.08 2.66 2.289 4.81 4.969 4.58 2.97-.26 4.281-2.021 4.531-5.021.13-1.57.8-3.42 1.86-4.54 5.56-5.82 11.32-11.44 17-17.14 3.73-3.74 8.9-6.9 10.74-11.42 1.9-4.65.569-10.63.609-16.03.02-2.12-.18-4.01 2.11-5.55 2.21-1.49 1.96-4.9-.02-6.64-1.05-.926-2.146-1.394-3.245-1.407zm-327.78.667c-2.79 0-4.562 2.13-4.792 5.22-.1 1.39-.539 3.09-1.459 4.03-7.9 8.08-15.93 16.04-23.98 23.97-.82.81-2.039 1.2-2.209 1.3-4.63-.23-6.81 1.46-6.92 4.41-.1 2.56 2.12 4.921 4.68 4.981 2.93.07 4.6-2 4.86-5.46.09-1.25.71-2.73 1.58-3.62 7.84-7.98 15.75-15.891 23.75-23.701.95-.93 2.59-1.49 3.96-1.59 3.31-.24 5.23-1.76 5.26-4.65.02-2.68-2.12-4.889-4.73-4.889zm342.71.04c-1.04.815-1.586 1.987-1.6 3.38a4.686 4.686 0 001.6 3.598v-6.978zm-258.8.3c.81-.09 1.769 1.07 3.199 2.05-1.28 1.15-2.23 2.559-2.85 2.419-.99-.22-1.76-1.45-2.62-2.26.75-.79 1.44-2.119 2.27-2.209zm-171.11.01c1 1.34 2.2 2.24 2.14 3.04-.07.85-1.34 1.6-2.08 2.4-.86-.81-2.16-1.501-2.41-2.471-.15-.62 1.24-1.639 2.35-2.969zm415.17 1.68c.82-.01 1.659 1.18 3.029 2.26-1.48.99-2.541 2.2-3.221 2.01-.95-.26-1.599-1.57-2.379-2.43.86-.66 1.7-1.82 2.57-1.84zm-327.75.53c.68-.13 1.628 1.229 3.068 2.429-1.55.96-2.54 2.051-3.5 2.021-.76-.02-1.47-1.42-2.2-2.21.87-.8 1.652-2.06 2.632-2.24zm15.962 8.298a4.379 4.379 0 00-.503.021c-2.66.27-4.48 1.661-4.53 4.621-.05 3.01 1.8 4.6 4.99 4.88 1.49.13 3.27.68 4.29 1.68a3162.158 3162.158 0 0135.689 35.71c1.1 1.11 1.83 3.07 1.86 4.65.18 9.02.09 18.04.09 27.06s.12 18.04-.09 27.05c-.05 1.8-.86 4.02-2.1 5.29-8.29 8.54-16.74 16.93-25.27 25.23-1 .98-2.76 1.5-4.22 1.61-2.97.23-5.251 2.12-5.091 4.91.16 2.76 1.64 4.46 4.53 4.61 2.93.15 4.63-1.82 5-4.91.2-1.68.94-3.63 2.09-4.81 8.38-8.62 16.98-17.031 25.37-25.641 1.1-1.13 1.96-3.06 1.97-4.62.14-18.88.16-37.76-.01-56.64-.02-1.87-1.09-4.16-2.42-5.52-11.7-11.94-23.6-23.67-35.32-35.58-1.08-1.1-1.688-2.97-1.868-4.56-.32-2.813-1.992-5.009-4.457-5.042zm123.44 1.13c.99 1.78 2.052 2.842 1.952 3.792-.07.76-1.582 1.98-2.362 1.91-.81-.08-2.15-1.47-2.11-2.23.05-.95 1.27-1.851 2.52-3.471zm-90.299.622c.99 1.36 2.16 2.27 2.07 3.05-.09.85-1.34 1.57-2.08 2.35-.84-.82-2.08-1.53-2.36-2.51-.16-.57 1.24-1.58 2.37-2.89zm-14.89.39c-2.67-.1-4.97 1.98-5.04 4.56-.07 2.8 2.34 4.79 5.5 4.9 1.26.04 2.8.48 3.67 1.31 5.11 4.9 10.09 9.94 15.03 15.01.9.92 1.399 2.21 1.529 2.42-.14 4.35 1.1 6.39 4.32 6.7 2.7.26 5.03-1.76 5.07-4.43.05-2.81-1.66-5.21-4.17-4.85-3.62.51-5.12-1.67-7.07-3.62-4.33-4.32-8.71-8.6-12.93-13.03-.83-.87-1.35-2.37-1.39-3.61-.11-3.27-1.62-5.25-4.52-5.36zm75.93.05c.85.81 2.15 1.51 2.39 2.47.16.68-1.13 1.709-2.11 3.049-1.08-1.21-2.451-2.089-2.351-2.799.12-.97 1.33-1.82 2.07-2.72zm49.11.269c.66-.14 1.61 1.171 3.1 2.371-1.59 1.01-2.56 2.1-3.51 2.08-.73-.02-2.14-1.64-1.98-2.19.27-.95 1.43-2.071 2.39-2.261zm-143.63.06c.81-.09 1.76 1.121 3.16 2.131-1.29 1.09-2.26 2.46-2.91 2.32-.98-.2-1.749-1.451-2.609-2.261.78-.78 1.51-2.1 2.36-2.19zm18.45 1.06c1 1.47 2.22 2.51 2.04 3.2-.24.94-1.53 1.62-2.37 2.41-.68-.84-1.87-1.66-1.9-2.52-.03-.82 1.15-1.679 2.23-3.089zm-34.16.161c-2.66-.11-4.59 2.12-4.94 5.11-.18 1.49-.77 3.239-1.78 4.279-7.7 7.92-15.54 15.72-23.4 23.5-.92.9-2.2 1.431-2.47 1.601-4.75-.05-6.8 1.58-6.91 4.52-.09 2.58 2.08 4.8 4.75 4.86 3.04.07 4.55-1.88 4.79-5.45.09-1.35.8-2.94 1.75-3.91a1440.81 1440.81 0 0123.472-23.44c.93-.9 2.59-1.4 3.93-1.45 3.13-.12 5.29-1.76 5.4-4.58.11-2.67-1.952-4.92-4.592-5.04zm316.52 2.03c-2.86-.05-4.832 2.25-4.692 6.78-.06.11-.458 1.31-1.238 2.12-5.11 5.24-10.261 10.44-15.521 15.52-.8.77-2.22 1.2-3.37 1.23-3.32.07-5.59 1.84-5.57 4.7.01 2.53 2.35 4.85 4.87 4.84 2.66 0 4.39-2.22 4.65-5.33.11-1.38.66-3.01 1.58-3.98 4.8-5.04 9.73-9.95 14.76-14.75.97-.92 2.59-1.499 3.96-1.599 3.12-.23 5.28-1.901 5.34-4.621.06-2.53-2.199-4.87-4.769-4.91zm-400.87.06c.65-.17 1.659 1.09 3.099 2.14-1.44 1.05-2.339 2.199-3.139 2.149-.87-.06-1.65-1.269-2.47-1.969.82-.83 1.54-2.08 2.51-2.32zm84.4.6c.83-.02 1.68 1.169 3.07 2.269-1.48.99-2.55 2.221-3.23 2.041-.96-.27-1.64-1.581-2.43-2.451.87-.67 1.72-1.84 2.59-1.86zm316.68 1.83c.68.83 1.85 1.65 1.88 2.51.03.81-1.15 1.66-2.24 3.05-1.01-1.46-2.25-2.52-2.06-3.15.29-.96 1.56-1.62 2.42-2.41zm-64.282.177a3.665 3.665 0 00-2.228 1.092c-1.21 1.24-2.17 3.611-1.86 5.201.3 1.53 2.39 2.71 3.81 4.16 1.84-1.03 3.43-1.38 3.96-2.33 1.19-2.12 2.9-2.07 4.85-2.06 6.73.04 13.47-.09 20.2.09 1.3.04 2.82.87 3.81 1.8 2.12 2 5.1 2.37 7.07.51 1.83-1.73 1.9-5.04.13-6.84-1.97-2.01-4.82-1.76-7.07.23-1.1.97-2.72 1.82-4.13 1.86-6.49.19-12.99.08-19.48.09-2.12 0-4.01.16-5.55-2.13-.813-1.213-2.181-1.815-3.512-1.673zm-287.2 2.043c1.08 1.34 2.282 2.18 2.262 3.01-.01.82-1.241 1.61-1.941 2.42-.88-.77-2.19-1.4-2.47-2.34-.18-.62 1.12-1.69 2.15-3.09zm287.36.54c.8.86 2.05 1.62 2.25 2.6.14.68-1.15 1.66-2.27 3.12-.97-1.52-2.05-2.461-1.97-3.281.09-.87 1.28-1.63 1.99-2.44zm36.14.109c.95.07 1.83 1.25 3.29 2.38-1.47 1.07-2.49 2.331-3.14 2.151-.93-.26-2.06-1.45-2.21-2.39-.1-.64 1.37-2.191 2.06-2.141zm-77.157.037c-1.266.046-2.517.55-3.382 1.494-1.71 1.87-1.74 5.29.5 6.74 2.15 1.39 2.249 3.09 2.189 5.16-.06 1.93-.01 3.85-.01 5.78 0 1.09-.159 2.2.041 3.25.78 4.37-1.171 7.339-4.261 10.279-8.1 7.71-15.9 15.72-23.79 23.65-1.28 1.28-2.289 2.3-4.519 1.9-2.9-.52-5.06 1.85-4.98 4.78.08 2.88 1.64 4.42 4.5 4.55 2.93.13 5.37-2.02 4.84-4.91-.41-2.24.559-3.28 1.849-4.56 8.78-8.74 17.601-17.44 26.211-26.34 1.31-1.36 2.15-3.66 2.29-5.59.33-4.55-.04-9.15.19-13.71.07-1.42.86-3.01 1.8-4.13 1.93-2.3 2.08-5.11 0-7.1-.92-.88-2.201-1.29-3.468-1.244zm.188 2.484c.77.73 2.03 1.39 2.15 2.22.11.77-.98 1.72-1.91 3.16-1.15-1.3-2.51-2.21-2.4-2.84.18-.95 1.39-1.7 2.16-2.54zm-131.36.71c-2.69-.01-4.78 2.14-4.71 4.83.08 2.82 2.19 4.5 5.28 4.68 1.35.08 2.992.59 3.942 1.49 4.87 4.63 9.54 9.48 14.33 14.2 1.39 1.37 2.479 2.539 2.109 4.889-.43 2.75 1.81 4.85 4.49 4.92a4.739 4.739 0 004.86-4.719c.03-2.81-2.18-4.69-5.11-4.89-1.44-.1-3.17-.64-4.18-1.6-5.05-4.79-9.95-9.75-14.82-14.73-.87-.89-1.38-2.13-1.48-2.29.24-4.62-1.65-6.79-4.71-6.78zm18.69.91c-2.56-.03-4.89 2.25-4.91 4.79-.02 2.89 2.27 4.83 6.78 4.67.13.08 1.32.49 2.15 1.28 4.73 4.61 9.331 9.349 14.061 13.949 1.76 1.7 3.15 3.2 2.88 6.06-.27 2.82 1.82 4.38 4.62 4.32 2.82-.05 4.48-1.799 4.64-4.529.14-2.57-1.33-4.9-3.89-4.65-3.79.38-5.58-1.93-7.73-4.11-4.14-4.18-8.39-8.25-12.42-12.53-.9-.96-1.42-2.59-1.51-3.95-.21-3.14-1.9-5.28-4.67-5.3zm-18.49 1.57c.63-.16 1.64 1.18 3.02 2.27-1.39 1.03-2.29 2.23-3.07 2.15-.87-.08-1.63-1.321-2.44-2.051.82-.84 1.52-2.12 2.49-2.37zm-170.83.36c-.321.014-.62.06-.91.12v3.098c.28-.3.563-.599.79-.899.88.76 2.2 1.4 2.48 2.34.2.67-1.018 1.75-1.968 3.22-.452-.554-.905-1.005-1.301-1.417v3.121c.167-.02.34-.056.5-.062 3.2-.13 5.5-2.05 5.43-4.99-.06-2.63-2.3-4.652-5.02-4.532zm432.79.052c-2.65.278-4.112 2.236-4.179 5.228-.02 1.24-.43 2.809-1.25 3.649-9.51 9.68-19.11 19.26-28.74 28.83-3.56 3.54-6.7 8.35-11.02 10.06-4.49 1.77-10.18.432-15.34.542-1.75.04-2.989-.21-4.119-1.92-1.63-2.47-4.89-2.62-6.88-.65-2 1.98-2.16 4.238-.44 6.468 1.75 2.27 5.048 2.642 6.888.352 1.55-1.93 3.231-2.08 5.301-2 2.04.08 4.091.02 6.131.02 1.2 0 2.43-.141 3.59.029 4.53.65 7.759-1.09 10.959-4.4 11.43-11.84 23.161-23.38 34.891-34.92 1.008-.999 2.71-1.572 4.209-1.755v-2.55c-.817-.892-1.53-1.554-1.53-2.196.01-.73.866-1.452 1.53-2.18v-2.607zm-343.15.508c-2.8.22-4.48 2.41-3.64 5.97-.61 1.1-1.02 2.4-1.89 3.25-8.11 8.2-16.26 16.36-24.5 24.44-.78.77-2.19 1.22-3.32 1.24-3.22.07-5.6 1.97-5.59 4.81.01 2.68 2.12 4.71 4.87 4.68 3-.02 4.46-1.85 4.66-5.18.09-1.38.58-3.06 1.5-4 7.98-8.16 16.06-16.23 24.22-24.22.87-.85 2.4-1.33 3.66-1.43 3.29-.27 5.37-2.19 5.17-5.17-.18-2.68-2.439-4.611-5.139-4.391zm99.31.05c.86.75 2.141 1.37 2.451 2.3.21.61-.99 1.69-1.96 3.15-1.13-1.35-2.321-2.16-2.321-2.95.02-.84 1.17-1.67 1.83-2.5zm-98.91 2.46c.96.03 1.87 1.2 3.39 2.31-1.56 1.05-2.579 2.25-3.279 2.08-.95-.23-1.66-1.5-2.47-2.32.79-.74 1.599-2.1 2.359-2.07zm16 .13c-2.56-.11-4.819 2.13-4.809 4.77.01 2.95 1.989 4.6 5.139 4.78 1.36.08 3.021.58 3.951 1.49 8.6 8.4 17.13 16.88 25.51 25.5 1.17 1.21 1.99 3.3 2.02 5 .17 11.31.17 22.62-.02 33.92-.03 1.67-.95 3.68-2.12 4.92-4.94 5.25-10.07 10.33-15.28 15.31-.95.9-2.6 1.43-3.95 1.49-3.12.15-5.17 1.79-5.25 4.7-.07 2.77 1.88 4.78 4.69 4.83 2.89.05 4.65-2.02 4.87-5.08.11-1.46.66-3.22 1.63-4.24a455.927 455.927 0 0115.53-15.569c1.73-1.65 2.35-3.35 2.3-5.67-.13-5.89-.04-11.791-.04-17.681s.19-11.8-.11-17.67c-.09-1.92-.94-4.24-2.25-5.59-8.36-8.65-16.981-17.04-25.391-25.63-1-1.02-1.64-2.75-1.75-4.21-.23-3.02-1.92-5.25-4.67-5.37zm-.34 1.7c1.15 1.29 2.54 2.22 2.42 2.85-.19.95-1.32 2.08-2.28 2.37-.51.15-2.03-1.25-2.13-2.07-.09-.79 1.04-1.74 1.99-3.15zm259.48.1c-1.254.027-2.461.569-3.201 1.679-1.33 2.01-2.892 2.102-4.852 2.092-6.62-.05-13.23-.022-19.85-.022-1.77 0-3.259.101-4.469-1.959-1.35-2.29-4.731-2.26-6.681-.52a4.79 4.79 0 00-.37 6.79c1.73 1.91 5.27 2.349 6.7.199 1.65-2.48 3.692-2.219 5.932-2.219h9.02c2.89 0 5.78.02 8.66-.01 2.39-.02 4.509-.15 6.269 2.32 1.51 2.13 5.04 1.66 6.65-.44 1.69-2.19 1.62-4.49-.33-6.5a4.755 4.755 0 00-3.478-1.41zm-141.87.136c-1.235-.086-2.43.313-3.42 1.273-1.97 1.91-1.99 4.81-.04 6.75 2.12 2.11 4.908 1.781 7.278-.529.88-.86 2.31-1.6 3.5-1.63 6.96-.16 13.94-.19 20.9 0 1.39.03 2.701 1.33 4.131 1.8 1.8.59 3.81 1.54 5.49 1.19 1.31-.28 2.26-2.31 3.87-4.13-1.58-1.79-2.54-3.81-3.99-4.26-1.49-.46-4.16.02-5.06 1.12-1.5 1.83-3.05 1.93-4.99 1.92-6.61-.04-13.22.08-19.82-.1-1.43-.04-3.079-.81-4.189-1.76-1.15-.985-2.425-1.558-3.66-1.644zm65.225.031c-2.74.113-4.266 2.119-3.666 5.662-.65 1.12-1.12 2.42-2 3.34-4.94 5.06-9.919 10.091-15.039 14.971-.92.88-2.54 1.33-3.86 1.38-2.85.1-5.271 2.04-5.341 4.72s2.021 4.86 4.681 4.88c2.83.02 4.55-2.02 4.83-5.09.14-1.49.69-3.25 1.68-4.29 4.7-4.97 9.56-9.79 14.51-14.5.97-.92 2.57-1.55 3.92-1.62 3.42-.18 5.39-1.79 5.32-4.9-.07-2.89-1.64-4.41-4.47-4.55a6.289 6.289 0 00-.565-.002zm-65.406 1.403c1.06 1.39 2.231 2.25 2.211 3.09-.03.86-1.2 1.69-1.87 2.54-.86-.79-2.17-1.47-2.44-2.43-.19-.67 1.08-1.73 2.1-3.2zm106.27.05c1 1.44 2.16 2.37 2.08 3.19-.08.86-1.34 1.62-2.08 2.42-.82-.85-2.09-1.6-2.3-2.58-.15-.67 1.19-1.65 2.3-3.03zm-70.35.8c.85.8 2.138 1.48 2.398 2.44.18.67-1.06 1.72-2.07 3.18-1.06-1.37-2.249-2.24-2.219-3.06.04-.88 1.211-1.71 1.891-2.56zm30.078.19c.79-.02 1.612 1.23 2.922 2.35-1.4 1-2.47 2.28-3.07 2.09-.94-.31-1.961-1.53-2.131-2.51-.09-.55 1.45-1.91 2.28-1.93zm76.4.02c.81-.03 1.66 1.2 2.99 2.28-1.38 1.03-2.44 2.35-3.06 2.16-.95-.28-1.59-1.59-2.36-2.46.81-.71 1.6-1.95 2.43-1.98zm-310.03.27c1.06 1.36 2.37 2.37 2.21 3.01-.24.96-1.51 1.66-2.34 2.48-.75-.8-2.03-1.55-2.09-2.4-.06-.8 1.15-1.7 2.22-3.09zm-46.48.83c-2.85-.08-4.64 2.09-4.85 5.11-.1 1.46-.629 3.24-1.609 4.24-1.153 1.168-2.316 2.326-3.47 3.493v3.586c1.626-1.606 3.252-3.215 4.88-4.82 1.19-1.16 3.15-1.88 4.85-2.11 3.08-.42 5.169-2.189 4.889-5.039-.27-2.75-1.82-4.38-4.69-4.46zm.1 1.48c.96 1.4 2.09 2.34 2.01 3.17-.07.86-1.32 1.61-2.06 2.41-.81-.85-2.099-1.61-2.259-2.56-.12-.72 1.219-1.67 2.309-3.02zm140.79 2.75c.82-.06 1.73 1.13 3.14 2.17-1.38 1.05-2.38 2.34-3.06 2.19-.96-.2-1.69-1.48-2.52-2.3.81-.73 1.58-2 2.44-2.06zm230.93 3.68c.88.74 2.2 1.33 2.5 2.26.2.62-1.021 1.72-1.971 3.15-1.15-1.31-2.41-2.1-2.41-2.91-.01-.83 1.2-1.67 1.88-2.5zm-210.19.78c-2.61-.09-4.972 2.08-5.022 4.61-.05 2.74 2.212 4.619 5.192 4.899 1.58.15 3.438.76 4.548 1.82a425.08 425.08 0 0115.33 15.291c1.74 1.83 3.54 2.46 6.01 2.43 9.63-.13 19.281-.5 28.871.1 6.83.43 12.14-1.14 16.18-6.75 1.33-1.84 2.9-3.09 5.68-2.74 2.72.34 4.81-2.3 4.51-4.92-.32-2.78-2-4.34-4.78-4.46-2.67-.12-5.159 2.15-4.619 4.83.55 2.73-.89 3.97-2.4 5.47-1.28 1.27-2.4 2.8-3.89 3.74-1.7 1.07-3.68 2.17-5.6 2.28-5.4.31-10.83.11-16.24.11-5.9 0-11.8.1-17.7-.07-1.38-.05-3.06-.68-4.04-1.62-5.56-5.33-10.99-10.78-16.34-16.32-.75-.79-1.12-2.23-1.14-3.38-.06-3.22-1.64-5.22-4.55-5.32zm158.65.976c-1.115.031-2.22.504-3.244 1.414-2.01 1.79-1.621 4.95.279 7.11.96 1.09 1.83 2.72 1.86 4.12.18 8.29.09 16.59.09 24.88s.14 16.59-.1 24.89c-.05 1.89-.98 4.211-2.3 5.551a2834.855 2834.855 0 01-37.99 37.99c-1.35 1.33-3.67 2.31-5.57 2.34-11.66.21-23.32.18-34.98.02-1.51-.03-3.23-.98-4.44-1.99-2.16-1.8-5.41-2.151-7.15-.16-1.81 2.08-1.8 4.43-.07 6.56 1.7 2.09 4.82 1.858 7.09.058 1.25-.98 2.98-1.878 4.5-1.898 12.14-.15 24.28-.01 36.42-.17 1.58-.02 3.53-.81 4.65-1.91 13.44-13.25 26.731-26.65 40.141-39.92 1.69-1.68 2.26-3.372 2.25-5.692-.09-16.71-.04-33.419-.04-50.129 0-1.89-.08-3.49 1.97-4.89 2.32-1.59 2.1-5.2-.06-6.94-1.065-.855-2.19-1.265-3.305-1.234zm-158.71 1.353c.73.78 1.98 1.531 2.05 2.371.07.83-1.05 1.76-2.03 3.21-1.1-1.36-2.43-2.33-2.28-2.98.21-.98 1.45-1.74 2.26-2.6zm262.2 1.315c-11.22 11.37-22.527 22.65-33.84 33.926-3.64 3.63-6.84 8.53-11.27 10.32-4.46 1.8-10.18.42-15.35.5-1.74.03-3.03-.161-4.16-1.891-1.56-2.38-4.95-2.479-6.95-.639-1.94 1.78-2.01 4.88-.17 6.8 1.88 1.95 5.01 2.22 6.69.04 1.49-1.94 3.15-2.17 5.25-2.07 2.04.1 4.089.02 6.129.03 1.2 0 2.43-.151 3.63.009 4.69.71 7.94-1.17 11.25-4.58 12.779-13.14 25.826-26.015 38.79-38.977v-3.469zm-103.24.046c.81-.04 1.678 1.06 3.148 2.11-1.48 1.05-2.488 2.26-3.148 2.1-.93-.24-1.6-1.491-2.39-2.311.79-.68 1.56-1.849 2.39-1.899zm-170.65 1.28c-1.19.015-2.387.536-3.367 1.55-1.99 2.07-2.27 4.719-.1 6.319 2.46 1.81 2.23 3.941 2.23 6.281v8.639c0 2.52.02 5.04 0 7.54-.02 2.9.5 5.721-2.55 7.991-2.09 1.56-1.28 4.3.54 6.04 1.86 1.78 4.19 1.89 6.21.23 2.15-1.77 2.82-4.671.8-6.301-3.04-2.45-2.56-5.35-2.58-8.36-.03-5.27.02-10.55-.02-15.83-.02-2.38-.03-4.42 2.27-6.25 2.08-1.65 1.84-4.299-.11-6.369-.95-1.005-2.133-1.495-3.323-1.48zm-103.05 1.05c.67-.1 1.56 1.29 2.79 2.41-1.36.98-2.4 2.25-3.07 2.07-.97-.26-1.68-1.54-2.5-2.39.92-.75 1.77-1.94 2.78-2.09zm50.09.37c-2.8.01-4.53 1.45-4.7 4.36-.17 2.89 1.54 5.129 4.11 4.839 3.42-.39 4.98 1.58 6.88 3.47 3.07 3.05 5.84 6.472 9.22 9.122 5.35 4.18 7.82 9.18 6.37 15.92 0 1.44-.17 2.908.03 4.318.58 3.95-.98 6.76-3.87 9.39-4.61 4.21-8.81 8.872-13.38 13.132-1.13 1.05-2.98 1.68-4.56 1.83-3.13.29-5.02 1.93-4.92 4.94.1 2.86 2.06 4.7 4.88 4.58 2.83-.12 4.52-2.322 4.58-5.382.02-1.23.49-2.749 1.31-3.609 4.06-4.28 8.06-8.65 12.53-12.461 4.38-3.73 6.54-7.889 5.77-13.719-.43-3.31-.22-6.73-.03-10.09.14-2.47-.59-4.26-2.41-5.99-4.88-4.64-9.56-9.48-14.34-14.23-1.69-1.67-3.31-3.071-2.91-6.051.37-2.78-1.721-4.38-4.561-4.37zm53.01.18c1.03 1.46 2.31 2.529 2.13 3.189-.27.96-1.6 1.631-2.47 2.431-.66-.85-1.83-1.7-1.85-2.57-.02-.82 1.15-1.68 2.19-3.05zm-74.313.5a4.855 4.855 0 00-3.448 1.37c-1.96 1.91-2.2 4.94.02 6.68 1.78 1.4 2.151 2.84 2.121 4.87-.09 6.48-.08 12.97-.01 19.45.03 2.1-.24 3.69-2.05 5.29-1.05.92-1.34 3.55-.88 5.09.41 1.37 2.32 2.29 4.13 3.91 1.78-1.62 3.86-2.621 4.21-4.061.39-1.62-.66-3.65-1.26-5.44-.45-1.33-1.651-2.559-1.681-3.859-.17-6.72-.04-13.45-.1-20.17-.02-1.98.17-3.511 1.99-4.951 2.31-1.82 2.22-4.42.27-6.67-.86-.995-2.075-1.492-3.312-1.51zm130.21.74c1.02 1.43 2.18 2.35 2.11 3.16-.07.83-1.341 1.56-2.081 2.34-.81-.83-2.07-1.55-2.28-2.51-.14-.65 1.17-1.63 2.25-2.99zm-109.16.01c1.16 1.32 2.42 2.11 2.45 2.93.02.83-1.18 1.69-1.85 2.54-.91-.73-2.24-1.32-2.58-2.26-.22-.61 1.02-1.74 1.98-3.21zm90.12.06c1.01.15 2.3 1.12 2.63 2.05.22.61-1.04 1.749-1.99 3.159-1.16-1.26-2.44-2.03-2.49-2.85-.04-.81 1.31-2.439 1.85-2.359zm-111.03 1.717c.641.116 1.647 1.195 2.89 2.052-1.31 1.15-2.11 2.42-2.94 2.43-.82.02-2.43-1.379-2.33-1.889.19-1.01 1.179-2.26 2.129-2.58a.495.495 0 01.252-.013zm162.45 3.293c.8-.07 1.72 1.07 3.16 2.08-1.4 1.09-2.37 2.37-3.03 2.23-.94-.21-1.67-1.46-2.49-2.26.78-.74 1.52-1.98 2.36-2.05zm136.7 1.6c.82.83 2.091 1.549 2.311 2.519.15.67-1.14 1.67-2.24 3.13-1-1.47-2.11-2.379-2.02-3.189.07-.87 1.25-1.64 1.95-2.46zm-120.73.349c1.14 1.26 2.54 2.19 2.42 2.83-.19.98-1.428 1.761-2.218 2.621-.79-.76-2.11-1.44-2.22-2.29-.1-.8 1.059-1.761 2.019-3.161zm51.835.553c-1.121-.02-2.234.418-3.244 1.338-2.03 1.86-2.43 4.83-.36 6.39 2.79 2.1 2.41 4.59 2.43 7.24.03 5.16.01 10.33.01 15.5 0 6.01.13 12.03-.08 18.04-.06 1.6-.83 3.52-1.94 4.66a1283.2 1283.2 0 01-24.47 24.47c-1.06 1.03-2.849 1.78-4.329 1.82-7.33.2-14.66.2-21.99.04-1.3-.03-2.81-.9-3.83-1.82-2.2-1.99-5.12-2.34-7.08-.5-1.95 1.83-2.02 4.82-.15 6.77 1.95 2.04 4.73 1.84 7.06-.12 1.12-.95 2.75-1.77 4.17-1.8 7.33-.18 14.67.07 21.99-.2 1.91-.07 4.21-1.02 5.58-2.35 8.55-8.27 16.949-16.7 25.219-25.25 1.23-1.28 2.12-3.46 2.15-5.24.18-11.89.1-23.789.08-35.689 0-2.04-.01-3.74 2.08-5.22 2.21-1.56 1.99-4.93 0-6.67-1.044-.91-2.175-1.389-3.296-1.409zm25.965.125c-1.28.005-2.563.453-3.438 1.343-1.87 1.91-1.531 4.93.399 7.12.96 1.09 1.76 2.73 1.8 4.15.18 6.61.06 13.22.09 19.83.01 1.93-.09 3.46-1.93 4.98-1.14.94-1.459 3.75-1.019 5.42.35 1.33 2.419 2.21 4.229 3.7 1.73-1.63 3.71-2.651 4.15-4.141s-.569-3.46-1.139-5.16c-.48-1.43-1.75-2.758-1.79-4.158-.19-6.97-.17-13.94 0-20.91.03-1.28.88-2.772 1.79-3.772 2.02-2.23 2.27-5.05.28-7.09-.865-.88-2.142-1.317-3.422-1.312zm-25.898 1.523c1.01 1.46 2.14 2.37 2.05 3.15-.1.83-1.33 1.54-2.06 2.3-.79-.81-2-1.531-2.23-2.481-.15-.62 1.13-1.579 2.24-2.969zm25.85.01c1.08 1.4 2.26 2.259 2.21 3.039-.06.84-1.26 1.6-1.96 2.4-.83-.78-2.07-1.439-2.34-2.379-.18-.61 1.06-1.63 2.09-3.06zm91.84 2.871c-11.758 11.749-23.514 23.5-35.318 35.209-1.08 1.07-2.942 1.71-4.512 1.87-2.99.31-5.268 2.17-5.068 4.95.2 2.72 1.578 4.47 4.548 4.55 3.07.08 4.601-1.69 4.961-4.87.19-1.68.93-3.65 2.09-4.83 11.074-11.198 22.145-22.4 33.3-33.512V293.2zm-331.75.395c-1.091-.057-2.204.344-3.309 1.214-2.01 1.59-2.52 5.2-.42 6.65 2.64 1.82 2.38 4.09 2.36 6.56-.02 2.76-.01 5.52-.01 8.28 0 3.12-.03 6.24.01 9.35.02 2.15.07 4.01-2.15 5.58-2.26 1.6-1.86 5.15.23 6.96 1.92 1.65 5.119 1.38 6.789-.58 1.64-1.93 1.2-4.811-.62-6.821-.97-1.07-1.85-2.659-1.89-4.049-.19-6.59-.05-13.191-.1-19.791-.02-2.07.011-3.76 2.141-5.16 2.19-1.44 2.05-4.88.15-6.67-1.02-.955-2.09-1.467-3.181-1.523zm-45.34.343c.69-.13 1.65 1.171 2.97 2.211-1.3 1.04-2.25 2.34-2.92 2.21-.98-.19-1.76-1.41-2.62-2.19.85-.8 1.61-2.04 2.57-2.23zm45.36 2.362c.83 0 1.65 1.22 3.02 2.34-1.52.97-2.61 2.178-3.29 1.968-.95-.28-1.58-1.62-2.35-2.5.87-.65 1.75-1.808 2.62-1.808zm263.65 6.689c.68-.14 1.652 1.17 3.022 2.25-1.45 1.01-2.4 2.18-3.21 2.1-.88-.08-1.64-1.35-2.45-2.1.87-.8 1.649-2.05 2.639-2.25zm-64.017.12c-1.12-.01-2.262.435-3.332 1.28-1.99 1.57-2.35 5.35-.219 6.69 2.56 1.6 2.24 3.67 2.26 5.9.02 2.29.03 4.57 0 6.86-.07 5.4 1.29 11.409-.65 16.029-1.95 4.63-7.07 8.02-11.07 11.65-1.34 1.22-3.491 2.08-5.311 2.15-6.61.25-13.23.11-19.85.1-2.22 0-4.3.29-5.9-2.22-1.34-2.1-5.14-1.8-6.72.09-1.79 2.14-1.81 4.5.11 6.52 1.94 2.04 4.69 2.33 6.35.22 1.86-2.35 3.99-2.19 6.33-2.2 3.25-.02 6.5-.01 9.75-.01 3.85 0 7.71.14 11.52-.07 1.41-.08 3.07-.67 4.08-1.61 4.13-3.85 8.15-7.84 11.99-11.99 1-1.08 1.651-2.89 1.691-4.38.18-7.22.1-14.439.08-21.659-.01-2.03 0-3.69 2.05-5.23 2.33-1.76 2.098-4.6.028-6.67-.975-.975-2.068-1.441-3.187-1.451zm.058 2.61c.71.77 1.921 1.52 1.971 2.34.05.79-1.1 1.65-2.17 3.07-1.05-1.44-2.291-2.44-2.121-3.06.24-.93 1.5-1.58 2.32-2.35zm132.04 2.916c-17.277 17.24-34.542 34.493-51.85 51.703-1.06 1.05-3 1.49-4.6 1.68-2.83.33-4.769 2.061-4.679 4.871.09 2.85 1.68 4.42 4.5 4.6 2.71.17 5.23-1.951 4.77-4.631-.46-2.67.89-3.93 2.41-5.45a64051.096 64051.096 0 0049.449-49.458v-3.315zm-164.38.973c.98 1.41 2.28 2.53 2.07 3.15-.32.96-1.68 1.56-2.59 2.32-.67-.85-1.88-1.71-1.86-2.55.02-.83 1.27-1.64 2.38-2.92zm-81.88.43c-2.66-.02-4.49.802-6.28 2.672-4.82 5.03-9.83 9.89-14.73 14.85-1.37 1.38-2.58 2.43-4.9 2.15-3.04-.36-5.07 1.91-4.86 4.87.2 2.82 1.84 4.369 4.68 4.439 2.86.07 4.73-2.2 4.88-5.12.08-1.45.59-3.21 1.55-4.22a401.398 401.398 0 0115.29-15.311c1.15-1.09 3.061-1.878 4.641-1.908 9.14-.17 18.28-.08 27.42-.08 7.58 0 15.18.338 22.73-.092 5.14-.31 9.01 1.011 12.15 5.101 1.77 2.3 4.24 3.85 3.83 7.54-.28 2.47 2.02 4.04 4.66 3.9 2.78-.15 4.53-1.81 4.57-4.61.04-2.74-1.5-4.991-4.31-4.691-3.07.33-4.6-1.31-6.34-3.11-1.25-1.3-2.641-2.469-3.801-3.849-1.59-1.91-3.47-2.53-5.97-2.52-18.4.1-36.81.109-55.21-.011zm-173.17 2.158c-.896.067-1.842.403-2.731.992-2.13 1.41-2.67 4.71-1.09 6.72 1.75 2.23 4.41 2.83 6.33 1.08 2.22-2.02 4.52-1.839 6.98-1.849 4.93-.03 9.85-.01 14.78-.01 0-.01 0-.011.03-.011 5.76 0 11.54-.08 17.3.06 1.3.03 2.91.511 3.81 1.372 5.54 5.33 10.961 10.779 16.301 16.309.73.76 1.079 2.21 1.059 3.33-.06 3.1 1.57 5.23 4.47 5.39 3 .17 5.111-1.81 5.061-4.75-.05-2.86-2.24-4.66-5.23-4.75-1.33-.04-2.96-.52-3.88-1.4-5.47-5.23-10.7-10.71-16.19-15.92-1.16-1.09-3.07-1.93-4.65-1.95-11.06-.16-22.11-.08-33.17-.09-2.22 0-4.21.29-5.6-2.52-.731-1.476-2.087-2.114-3.58-2.003zm.09 2.643c.85-.03 1.74 1.21 3.08 2.27-1.32 1.02-2.32 2.34-3.02 2.19-.95-.21-1.67-1.52-2.49-2.36.81-.75 1.6-2.07 2.43-2.1zm145.7 1.96c.68.86 1.858 1.7 1.888 2.58.03.82-1.18 1.679-2.28 3.069-.99-1.48-2.219-2.538-2.039-3.238.25-.95 1.57-1.62 2.43-2.41zm-74.49 2.19c.61-.17 1.65 1.18 3 2.24-1.35 1.06-2.232 2.27-3.042 2.24-.82-.04-2.339-1.501-2.219-2.021.24-.99 1.3-2.19 2.26-2.46zm115.83 1.107c-5.958.08-10.726 1.99-14.444 7.213-1.16 1.63-2.61 2.78-5.14 2.4-2.84-.42-4.721 1.8-4.711 4.63.01 2.76 2.08 4.81 4.78 4.74 2.85-.08 4.651-2.29 4.741-5.26.04-1.34.55-2.87 1.35-3.93 1.29-1.72 3.06-3.05 4.49-4.67 1.6-1.82 3.38-2.65 5.93-2.54 5.39.23 10.809.07 16.209.07v-.02c3.6 0 7.25.36 10.8-.08 6.79-.85 12.25.99 16.09 6.76.9 1.34 1.64 2.97 1.84 4.55.36 2.89 1.471 4.81 4.561 5 2.73.17 4.9-1.85 5-4.53.11-2.82-1.95-4.6-5-4.96-1.59-.19-3.26-.96-4.55-1.92-1.81-1.36-3.41-3.041-4.89-4.771-1.62-1.89-3.47-2.55-5.97-2.51-9.49.13-19.011.52-28.461-.1-.9-.058-1.774-.083-2.625-.072zm164.02.153c.79.78 2.108 1.509 2.198 2.359.09.83-1.098 1.79-2.058 3.18-1.12-1.26-2.55-2.23-2.43-2.86.21-1.01 1.47-1.8 2.29-2.68zm-107.32 1.6c1.01.26 2.23 1.3 2.5 2.25.18.66-1.1 1.72-2.18 3.24-1.08-1.45-2.251-2.341-2.311-3.311-.05-.73 1.49-2.31 1.99-2.18zm-254.06 4.116c-.945.044-1.9.39-2.743 1.024a4.474 4.474 0 00-1.3 1.594v4.464c.125.24.267.474.439.692 1.78 2.25 4.84 2.27 7.34.31 1.01-.79 2.41-1.47 3.65-1.5 5.89-.15 11.77-.07 17.66-.07 5.77 0 11.539-.14 17.279.08 1.59.06 3.48.82 4.63 1.9 4.98 4.68 9.73 9.62 14.6 14.43 1.54 1.52 2.79 2.82 2.41 5.47-.39 2.72 1.67 4.5 4.43 4.62 2.79.12 4.63-1.53 4.91-4.26.28-2.72-1.2-5.28-3.91-4.95-3.74.46-5.37-1.84-7.42-3.88-4.52-4.48-8.91-9.1-13.59-13.41-1.32-1.22-3.45-2.16-5.23-2.19-11.65-.19-23.299-.09-34.949-.07-1.7.01-3.05-.02-4.13-1.9-.957-1.662-2.502-2.426-4.077-2.353zm337.92.463c1.03 1.44 2.169 2.33 2.099 3.1-.08.83-1.302 1.56-2.022 2.33-.8-.79-2.03-1.49-2.27-2.43-.15-.62 1.122-1.6 2.192-3zm-337.82.83c1.18 1.74 2.33 2.71 2.33 3.67-.01.76-1.422 2.03-2.272 2.08-.74.04-2.18-1.279-2.2-2.029-.02-.97 1.061-1.96 2.141-3.72zm429.56.56c-1.445 1.737-1.528 3.78-.11 5.76.034.048.074.084.11.13v-5.89zm-231.77 2.491c-2.85.05-4.451 2.13-4.641 5.29-.09 1.46-.66 3.22-1.64 4.24-5.83 6.06-12.28 11.58-17.68 17.99-5.19 6.15-11 9.18-18.99 7.75-2.49-.44-4.25.7-5.97 2.47-6.03 6.21-12.639 11.91-18.199 18.5-5.37 6.37-11.42 9.23-19.67 8.04-1.54-.22-3.66.889-4.93 2.029-3.83 3.46-7.49 7.13-10.97 10.94-1.08 1.18-1.921 3.06-1.961 4.64-.184 7.162-.034 14.335-.153 21.5h2.52c-.068-5.244.274-10.51-.127-15.73-.41-5.38 1.771-8.9 5.201-12.9 5.65-6.59 11.899-9.78 20.559-8.47 1.41.21 3.41-.89 4.55-1.99 6.4-6.17 13.032-12.18 18.802-18.92 5.28-6.17 11.16-9.33 19.27-7.85 2.34.43 3.989-.64 5.629-2.31 7.91-8.06 15.9-16.05 23.99-23.94 1.03-1 2.78-1.6 4.27-1.76 3.15-.33 5.09-2 5.02-4.9-.06-2.77-2.07-4.67-4.88-4.62zm179.84.115c-1.444-.069-2.978.543-4.3 1.764-.92.85-2.311 1.61-3.521 1.65-4.92.18-9.86-.08-14.77.16-1.6.08-3.52.82-4.65 1.92-8.85 8.64-17.49 17.49-26.34 26.12-1.2 1.17-3.15 1.91-4.84 2.12-3.13.38-5.01 2.001-4.92 4.971.08 2.78 2.13 4.65 4.94 4.51 2.81-.14 4.7-2.4 3.85-5.8.63-1.08 1.07-2.341 1.93-3.221 5.8-5.92 11.671-11.77 17.561-17.6 3.65-3.61 6.83-8.57 11.26-10.32 4.58-1.81 10.41-.47 15.69-.51.24 0 .508-.079.708.021.97.48 2.152.79 2.852 1.54 2.13 2.27 5.249 2.78 7.299.96 1.83-1.62 1.99-5.091.31-6.851-.87-.915-1.938-1.38-3.06-1.434zm-200.12.735c1.12 1.32 2.528 2.309 2.388 2.959-.22.98-1.52 1.72-2.36 2.56-.75-.8-2.029-1.55-2.109-2.41-.08-.81 1.1-1.74 2.08-3.11zm-79.74.25c.99 1.4 2.17 2.349 2.06 3.119-.12.87-1.412 1.57-2.192 2.34-.82-.85-2.059-1.6-2.289-2.58-.14-.61 1.27-1.57 2.42-2.88zm279.36.51c1.07 1.47 2.219 2.37 2.259 3.29.02.74-1.51 2.25-2.04 2.12-1-.24-2.19-1.28-2.49-2.24-.18-.59 1.13-1.65 2.27-3.17zm-132.98.109c.8-.03 1.65 1.22 2.97 2.32-1.4 1.03-2.49 2.36-3.09 2.17-.97-.32-1.61-1.63-2.39-2.52.83-.71 1.65-1.94 2.51-1.97zm-86.718.055c.624.107 1.646 1.176 2.889 2.025-1.27 1.14-2.051 2.38-2.861 2.4-.81.01-2.41-1.32-2.32-1.81.19-1 1.12-2.25 2.05-2.6a.456.456 0 01.242-.015zm40.617.736c.82-.05 1.72 1.16 3.07 2.18-1.36 1.07-2.398 2.439-3.048 2.279-.98-.25-1.702-1.57-2.532-2.43.84-.73 1.64-1.98 2.51-2.03zm191.33.2c.83-.1 1.8.989 3.31 1.929-1.39 1.15-2.339 2.49-3.019 2.37-1-.18-1.801-1.41-2.691-2.2.79-.75 1.53-1.99 2.4-2.1zm-157.21 2.51c-2.513.018-4.874 2.345-4.396 4.99.44 2.47-.82 3.54-2.15 4.87-5.18 5.19-10.45 10.31-15.51 15.61-1.03 1.08-1.8 2.83-1.86 4.31-.23 5.4-.311 10.819-.031 16.219.09 1.8 1.04 3.91 2.28 5.24 4.93 5.26 10.1 10.301 15.24 15.361 1.32 1.3 2.22 2.37 1.77 4.58-.52 2.54 1.98 5.05 4.54 5 2.73-.05 4.53-1.522 4.86-4.342.32-2.68-1.73-5.509-4.32-5.039-3.21.59-4.57-1.34-6.31-3.06-2.99-2.95-5.78-6.16-8.99-8.85-5.22-4.37-8.69-9.249-6.78-16.459 0-1.8.18-3.63-.03-5.41-.4-3.27.749-5.622 3.169-7.862 4.85-4.49 9.33-9.38 14.131-13.92 1.03-.97 2.78-1.538 4.25-1.638 3.09-.21 5.29-1.981 5.15-4.801-.14-2.8-1.79-4.45-4.51-4.77a4.036 4.036 0 00-.503-.029zm.393 1.659c.97 1.47 2.19 2.56 1.99 3.18-.3.93-1.61 1.531-2.49 2.271-.65-.83-1.819-1.67-1.819-2.51-.01-.8 1.199-1.601 2.319-2.941zm-155.02.541c1.11 1.38 2.45 2.34 2.31 3.01-.19.96-1.45 1.709-2.26 2.549-.75-.78-2.01-1.51-2.09-2.36-.08-.82 1.05-1.749 2.04-3.199zm-77.248 4.889A4.765 4.765 0 00.95 344.14c-.42.456-.743.93-.99 1.41v3.916c.203.39.447.775.78 1.153 1.85 2.11 4.71 2.62 6.33.55 2.23-2.86 4.87-2.439 7.65-2.449 4.81-.03 9.61-.01 14.42-.01 5.77 0 11.54-.111 17.31.079 1.5.05 3.3.73 4.37 1.74 5.32 5.03 10.5 10.22 15.57 15.51.9.95 1.42 2.6 1.48 3.96.14 3.2 1.72 5.23 4.62 5.27 2.75.04 4.921-1.998 4.941-4.638.02-2.75-2.23-4.641-5.17-4.881-1.47-.11-3.22-.651-4.24-1.631-5.3-5.06-10.31-10.43-15.67-15.42-1.39-1.3-3.692-2.25-5.602-2.28-11.29-.2-22.589-.11-33.889-.08-2.04 0-3.77 0-5.23-2.1-.775-1.11-1.99-1.627-3.238-1.62zm198.7 1.478c-1.055-.055-2.134.332-3.164 1.192-2.15 1.79-2.91 4.65-.83 6.28 3.2 2.5 2.608 5.53 2.628 8.63.03 5.53-.02 11.05.02 16.58.01 1.95-.21 3.48-1.94 5-1.1.97-1.63 3.57-1.16 5.04.46 1.46 2.501 2.42 4.291 3.99 1.79-1.58 3.83-2.53 4.13-3.86.38-1.68-.56-3.72-1.15-5.54-.47-1.44-1.76-2.76-1.81-4.16-.2-6.24-.051-12.49-.111-18.74-.03-2.53.04-4.67 2.4-6.58 2.15-1.73 1.681-4.439-.289-6.369-.93-.91-1.96-1.408-3.015-1.463zm230.56.63c-1.32 1.776-1.39 3.726 0 5.542v-5.543zm-429.58.472c.86.79 2.191 1.46 2.431 2.41.17.66-1.16 1.69-2.2 3.06-1.06-1.35-2.28-2.22-2.26-3.05.02-.83 1.299-1.61 2.029-2.42zm198.58.67c1.15 1.27 2.561 2.201 2.431 2.841-.19.97-1.43 1.75-2.22 2.61-.8-.75-2.12-1.431-2.24-2.281-.11-.79 1.069-1.76 2.029-3.17zm-95.93 2.71c.64-.17 1.67 1.11 3.01 2.1-1.23 1.1-2.11 2.45-2.78 2.36-.96-.14-1.77-1.339-2.65-2.079.79-.84 1.47-2.12 2.42-2.38zm303.55.034c-1.111-.006-2.225.436-3.28 1.336-2.13 1.82-2.24 5.341.15 6.941 2.08 1.39 1.911 3.06 1.911 4.94 0 23.953 0 47.913-.008 71.869h2.43c0-24.18.015-48.36.078-72.54 0-1.38.991-2.97 1.96-4.08 1.82-2.1 2.07-5.369.03-7.109-1.05-.895-2.16-1.351-3.271-1.357zm.271 2.707c.66-.12 1.59 1.18 2.98 2.33-1.53.97-2.5 2.07-3.3 1.95-.86-.12-1.57-1.38-2.34-2.14.88-.76 1.67-1.96 2.66-2.14zm-337.83.76c.66-.16 1.661 1.11 3.051 2.15-1.4 1.05-2.28 2.22-3.08 2.17-.84-.06-1.6-1.29-2.4-2.01.8-.82 1.49-2.08 2.43-2.31zm181.24.56c.88.71 2.19 1.29 2.49 2.2.2.63-.99 1.719-1.92 3.179-1.16-1.31-2.4-2.09-2.41-2.9-.02-.81 1.18-1.649 1.84-2.479zm-169.62 5.012c-1.096-.085-2.24.307-3.36 1.187-2.17 1.7-2.69 4.931-.57 6.621 2.41 1.92 2.311 4.159 2.301 6.649-.02 4.57-.4 9.191.1 13.7.73 6.53-.999 11.63-6.379 15.59-2.2 1.62-4.14 3.71-5.81 5.89-1.13 1.47-2.18 3.45-2.24 5.24-.23 7.05-.052 14.117-.173 21.17h2.516c.218-4.42.331-8.865-.144-13.23-.8-7.23 1.301-12.79 7.181-17.09 1.92-1.4 3.649-3.2 5.049-5.12 1.1-1.52 2.141-3.48 2.201-5.28.24-7.21.14-14.43.08-21.65-.02-2.21.11-4 2.17-5.61 2.18-1.71 2.04-4.33.16-6.39-.935-1.03-1.986-1.592-3.082-1.677zm14.172.01c-1.087-.035-2.186.402-3.261 1.357-2.18 1.94-2.03 4.7-.13 7.06.99 1.23 1.73 2.901 1.96 4.471.32 2.24.1 4.56.08 6.85-.06 5.88 1.391 12.37-.639 17.48-1.92 4.84-7.631 8.11-11.371 12.33-1.28 1.45-2.25 3.69-2.32 5.6-.24 6.956-.053 13.928-.166 20.888H85.1c.129-6.21.129-12.432-.035-18.639-.08-3.11.66-5.47 3.05-7.59 3.32-2.96 6.46-6.13 9.42-9.45 1.07-1.2 1.91-3.07 1.95-4.66.2-7.58.1-15.16.07-22.74-.01-1.81 0-3.28 1.85-4.59 2.45-1.74 2.4-4.98.3-6.89-1.034-.934-2.111-1.443-3.199-1.478zm18.238 1.158c.97.29 2.12 1.44 2.32 2.41.14.69-1.168 1.67-2.308 3.12-1.02-1.52-2.17-2.48-2.17-3.43.01-.76 1.638-2.25 2.158-2.1zm-82.514 1.306c-2.522.147-4.304 2.725-4.304 5.584 0 1.21-.45 2.75-1.26 3.59-4.9 5.1-9.942 10.09-15.012 15.03-.91.89-2.199 1.38-3.319 2.05-3.72-.58-5.711.989-5.771 3.809-.08 2.82 1.321 4.63 4.111 4.99 2.81.37 5.33-1.28 5.1-3.79-.37-4 2.14-5.77 4.32-7.99 4.03-4.11 8.05-8.239 12.25-12.189.96-.91 2.58-1.47 3.93-1.54 3.42-.18 5.26-1.821 5.14-5.061-.12-2.99-2.052-4.289-4.672-4.479a3.966 3.966 0 00-.513-.003zm64.094.004c.79.87 2.031 1.659 2.211 2.639.13.69-1.2 1.64-2.29 2.99-.98-1.44-2.13-2.4-2.05-3.22.1-.87 1.37-1.609 2.13-2.409zm-14.109.18c.62-.13 1.57 1.28 2.84 2.42-1.38.96-2.319 2.11-3.129 2.03s-2.23-1.62-2.08-2.12c.29-.97 1.41-2.12 2.37-2.33zm-49.43 1.478c1.03 1.37 2.31 2.372 2.16 3.012-.24.93-1.51 1.6-2.34 2.38-.71-.78-1.94-1.54-1.97-2.35-.04-.81 1.12-1.672 2.15-3.042zm325.09.9c-2.98-.02-4.59 1.942-4.78 5.132-.09 1.45-.64 3.229-1.62 4.219-12.07 12.24-24.28 24.35-36.41 36.53-3.98 4-9.299 7.471-11.39 12.312-1.586 3.681-.961 8.326-.687 12.818h2.493c-.002-.868 0-1.735.003-2.6.01-2.29-.228-4.61.112-6.84.24-1.64.839-3.55 1.949-4.67 15.2-15.38 30.51-30.659 45.88-45.879.92-.91 2.58-1.41 3.94-1.49 2.98-.18 5.3-2.03 5.36-4.74.06-2.58-2.16-4.781-4.85-4.791zm64.854.583c-1.266-.009-2.533.433-3.433 1.328-1.89 1.89-2.08 5.001.17 6.701 2.02 1.52 2.04 3.239 2.04 5.309-.017 19.036-.002 38.063-.01 57.09h2.39c.004-19.136.02-38.274.09-57.41 0-1.62.99-3.459 2.03-4.799 1.71-2.18 1.979-4.99.149-6.84-.895-.91-2.16-1.37-3.426-1.379zm-47.543 1.318c.75-.11 1.69 1.041 3.12 2.041-1.34 1.13-2.27 2.46-2.92 2.33-.93-.19-1.66-1.42-2.47-2.21.75-.77 1.43-2.04 2.27-2.16zm47.54.2c1.05 1.42 2.32 2.42 2.16 3.04-.24.95-1.491 1.64-2.311 2.44-.71-.79-1.909-1.55-1.979-2.4-.06-.79 1.09-1.67 2.13-3.08zm-64.93.39c.79-.1 1.75 1.03 3.16 1.97-1.27 1.18-2.221 2.621-2.801 2.481-.97-.22-2.089-1.33-2.399-2.3-.16-.5 1.23-2.05 2.04-2.15zm-36.75 1.41c.77.88 1.99 1.69 2.15 2.67.12.68-1.221 1.61-2.371 2.97-.92-1.51-1.99-2.49-1.89-3.32.11-.85 1.36-1.55 2.11-2.32zm-68.6.6c.8-.04 1.648 1.121 3.048 2.201-1.47 1.01-2.518 2.239-3.158 2.059-.94-.27-1.591-1.539-2.371-2.389.82-.67 1.63-1.831 2.48-1.871zm-182 .191c1.11 1.35 2.31 2.16 2.31 2.97-.01.84-1.17 1.679-1.83 2.519-.89-.74-2.21-1.35-2.5-2.28-.2-.63 1.03-1.719 2.02-3.209zm-26.67 1.93c-2.86.01-4.68 2.199-4.83 5.129-.07 1.45-.652 3.21-1.632 4.22-7.12 7.33-14.159 14.782-21.719 21.642-5.19 4.7-8.62 9.57-6.84 15.58 0 8.39-.07 8.359-2.92 14.129-.63 1.271-.791 2.541-.433 3.69h3.133c-.479-.54-.805-.98-.721-1.32.23-.95 1.5-1.66 2.33-2.47.72.8 1.952 1.55 2.022 2.4.036.416-.265.861-.7 1.39h3.137c.67-1.575.538-3.273-.928-4.29-2.93-2.04-2.48-4.59-2.5-7.26-.03-3.73-.2-7.47.09-11.18.13-1.6.859-3.5 1.969-4.64 8.4-8.61 16.981-17.04 25.451-25.58 1.41-1.42 2.64-2.351 4.92-2.061 2.83.36 4.8-1.82 4.82-4.58.02-2.87-1.86-4.809-4.65-4.799zm.218 2.5c.58-.15 1.56 1.23 2.88 2.37-1.4 1-2.319 2.17-3.099 2.08-.83-.09-2.26-1.58-2.12-2.09.27-.98 1.369-2.11 2.339-2.36zm343.98.27c-3.07-.01-4.799 2.08-4.879 5.42-.03 1.23-.531 2.749-1.361 3.619-4.82 5.02-9.74 9.96-14.79 14.75-1.01.96-2.73 1.51-4.17 1.62-3.02.22-5.09 2.02-5.05 4.91.04 2.77 2.081 4.7 4.881 4.63 2.84-.07 4.57-2.229 4.62-5.309.03-1.24.4-2.8 1.21-3.64 4.98-5.2 10.11-10.261 15.26-15.301.81-.79 1.98-1.219 2.14-1.309 4.66.21 6.72-1.471 6.76-4.531.05-2.82-1.88-4.84-4.62-4.86zm-.1 2.459c.96.04 1.86 1.25 3.32 2.36-1.49 1.06-2.539 2.32-3.189 2.14-.98-.27-1.68-1.549-2.5-2.399.79-.75 1.61-2.141 2.37-2.101zm-77.449 1.3c-2.84-.07-5.27 1.77-4.7 4.23.93 4.02-1.58 5.62-3.67 7.76-2.36 2.4-4.59 4.961-7.19 7.061-1.43 1.15-3.5 2.07-5.3 2.12-7.56.22-15.14-.05-22.7.16-1.69.05-3.68.92-4.97 2.06-3.42 3.01-6.54 6.36-9.74 9.61-1.35 1.37-2.48 2.509-4.86 2.109-2.7-.46-4.91 1.941-4.79 4.621.13 2.79 1.749 4.44 4.489 4.77 2.55.31 5.42-1.96 4.91-4.5-.62-3.03 1.281-4.211 2.711-6.061 6.31-8.14 13.82-13.179 24.69-10.299 10.99 2.9 18.66-2.161 25-10.451.21-.29.49-.53.75-.78 1.67-1.67 3.129-3.249 6.009-3.179 2.82.07 4.17-2.3 3.92-5-.23-2.54-1.909-4.16-4.559-4.23zm14.457.676c-2.602.066-4.32 2.137-4.638 5.184-.14 1.38-.74 2.99-1.68 3.97-5.42 5.63-11.499 10.691-16.389 16.721-5.98 7.38-12.901 10.51-22.371 9.27-5.18-.68-11.13-1.38-15.66.5s-7.75 6.94-11.5 10.65c-1.62 1.6-2.98 3-5.76 2.67-2.85-.34-4.35 1.949-4.34 4.639.006 1.555.588 2.775 1.563 3.58h6.48c.912-.74 1.434-1.833 1.237-3.2-.48-3.3 1.35-4.8 3.2-6.63 2.57-2.53 4.95-5.28 7.7-7.58 1.41-1.18 3.44-2.179 5.23-2.239 7.44-.25 14.89-.24 22.34-.05 2.67.07 4.47-.882 6.27-2.712 7.91-8.06 15.911-16.029 23.941-23.969.88-.88 2.179-1.329 2.379-1.439 4.56.24 6.64-1.33 6.86-4.15.21-2.74-1.669-5.002-4.329-5.202a5.293 5.293 0 00-.533-.013zm-14.498.844c.99 1.42 2.26 2.491 2.08 3.191-.24.95-1.59 1.63-2.47 2.42-.67-.85-1.88-1.71-1.87-2.56 0-.86 1.21-1.721 2.26-3.051zm-195.42.66c1.06 1.45 2.23 2.37 2.26 3.32.02.76-1.558 2.32-2.058 2.18-1-.27-2.212-1.35-2.452-2.32-.17-.67 1.14-1.71 2.25-3.18zm210 1.041c.98.3 2.13 1.46 2.32 2.44.13.68-1.208 1.65-2.368 3.08-1-1.51-2.141-2.49-2.131-3.44 0-.75 1.67-2.24 2.18-2.08zm-175.13 1.703a5.847 5.847 0 00-.545.006c-2.82.17-4.419 2.33-4.449 5.47-.01 1.22-.571 2.58-1.271 3.61-.87 1.27-2.3 2.14-3.22 3.39-5.04 6.83-11.49 9.981-20.12 8.571-1.5-.25-3.63.93-4.9 2.08a159.674 159.674 0 00-10.96 10.97c-1.07 1.18-1.86 3.079-1.9 4.669-.123 4.722-.09 9.448-.092 14.17h2.737c-.099-.469-.195-.938-.325-1.42 0-3.97-.16-7.95.1-11.91.09-1.5.79-3.25 1.8-4.36 3.23-3.56 6.64-6.96 10.17-10.23 1.02-.95 2.76-1.928 3.97-1.718 9.16 1.59 15.97-1.91 21.29-9.15.91-1.24 2.06-2.4 3.33-3.27 1.04-.72 2.401-1.301 3.651-1.361 3.13-.15 5.17-1.82 5.24-4.71.066-2.737-1.83-4.71-4.506-4.806zm88.164.897c.8-.11 1.752.929 3.282 1.86-1.38 1.16-2.302 2.48-2.952 2.37-.96-.19-1.73-1.38-2.59-2.15.75-.74 1.43-1.96 2.26-2.08zm-37.299.289c1.11 1.25 2.511 2.181 2.391 2.851-.17.98-1.43 1.76-2.22 2.63-.8-.76-2.16-1.46-2.25-2.29-.08-.83 1.11-1.801 2.08-3.191zm-50.91.23c1.03 1.5 2.29 2.56 2.11 3.23-.27.97-1.57 1.661-2.43 2.471-.75-.81-2.13-1.65-2.09-2.42.05-.95 1.28-1.84 2.41-3.28zm28.551 2.32c-2.646-.002-5.291.055-7.931.19-1.7.08-3.68.97-4.93 2.14-5.09 4.76-9.939 9.77-14.869 14.71-1.58 1.58-2.82 3.141-5.73 2.591-2.72-.51-4.45 1.72-4.56 4.46-.12 2.75 1.33 4.58 4.23 4.83 2.82.25 5.33-1.21 5-3.86-.45-3.74 1.86-5.33 3.87-7.38 2.78-2.84 5.87-5.41 8.36-8.47 4.35-5.35 9.34-8.56 16.51-6.73 1.44 0 2.91.17 4.35-.01 3.82-.56 6.56.88 9.12 3.71 4.11 4.54 8.58 8.76 12.95 13.06 1.49 1.47 2.56 2.81 2.28 5.23-.33 2.78 1.99 4.78 4.7 4.74 2.63-.05 4.77-2.31 4.66-4.94-.11-2.63-2.42-5.09-5-4.52-2.25.5-3.31-.51-4.58-1.78-5.35-5.37-10.64-10.79-16.12-16.02-1.07-1.02-2.87-1.72-4.37-1.78a205.098 205.098 0 00-7.94-.17zm172.52 3.63c-2.4.085-4.723 2.231-4.32 4.66.43 2.61-.78 3.96-2.31 5.48-4.78 4.73-9.5 9.511-14.32 14.191-.84.81-2.03 1.26-2.31 1.43-4.33-.21-6.41 1.34-6.65 4.08-.22 2.67 1.731 5.19 4.311 5.24 2.73.06 5.29-1.43 4.94-4.06-.5-3.78 1.858-5.38 3.878-7.43 3.96-4.01 8.022-7.94 11.932-12 1.49-1.54 2.879-2.47 5.239-2.24 2.8.27 4.81-1.981 4.65-4.711-.16-2.81-1.789-4.4-4.559-4.63a4.089 4.089 0 00-.48-.01zm-343.81.13c.96-.03 1.961 1.05 3.541 2.02-1.48 1.2-2.43 2.53-3.12 2.41-.97-.17-1.76-1.429-2.62-2.219.73-.79 1.44-2.19 2.2-2.21zm344.08 2.41c.82-.1 1.79 1.061 3.23 2.041-1.28 1.13-2.2 2.49-2.86 2.37-.98-.17-1.76-1.39-2.63-2.17.74-.8 1.43-2.14 2.26-2.24zm38.51.041c-2.99.04-4.62 2.21-4.64 5.62-.01 1.24-.498 2.79-1.328 3.65-6.02 6.21-12.541 11.98-18.191 18.51-4.95 5.72-10.34 8.95-18.02 7.49-3.02-.58-5.12.86-7.2 2.99-1.54 1.582-3.087 3.156-4.636 4.729h3.11c4.512-4.362 9.566-6.598 16.325-5.309 2.78.52 4.69-.831 6.59-2.771 7.81-8 15.731-15.89 23.721-23.71.95-.93 2.58-1.479 3.95-1.609 2.97-.29 5.22-2.19 5.22-4.88 0-2.6-2.22-4.74-4.9-4.71zm-213.15 1.819c-2.77-.07-4.63 2.14-4.85 5.14-.11 1.45-.629 3.211-1.609 4.211-8.31 8.5-16.69 16.94-25.23 25.21-2.053 1.988-3.26 4.007-3.48 6.609h2.681c.284-1.44.812-2.967 1.748-3.92 8.64-8.86 17.41-17.59 26.25-26.24.92-.91 2.582-1.41 3.932-1.46 3.07-.12 5.15-1.799 5.2-4.679.05-2.81-1.851-4.8-4.641-4.87zm213.51.74c.67-.12 1.582 1.231 2.922 2.381-1.49.93-2.451 2.01-3.271 1.91-.83-.1-1.52-1.37-2.27-2.13.86-.77 1.65-1.99 2.62-2.16zm-213.21 1.92c.81.03 1.56 1.26 2.85 2.42-1.53.91-2.67 2.07-3.31 1.84-.91-.32-1.44-1.67-2.14-2.58.87-.61 1.76-1.72 2.6-1.68zm185.74 4.99c.82-.05 1.71 1.13 3.11 2.17-1.43 1.04-2.45 2.31-3.14 2.16-.94-.21-1.63-1.52-2.43-2.36.82-.7 1.61-1.93 2.46-1.97zm-128.24 4.44c.78.84 1.99 1.6 2.17 2.55.12.65-1.2 1.57-2.32 2.91-.96-1.47-2.05-2.409-1.95-3.189.11-.83 1.35-1.521 2.1-2.271zm-190.41.334c-1.246.002-2.488.462-3.398 1.377-1.84 1.85-1.46 5.03.39 7.13 1.03 1.17 1.73 2.87 1.99 4.43.33 1.99.08 4.08.08 6.12 0 1.33-.16 2.67.01 3.97.317 2.22-.066 4.052-.954 5.719h2.607c.278-.836.46-1.7.518-2.5.33-4.55-.031-9.14.189-13.7.07-1.41.841-3.019 1.791-4.089 1.94-2.19 2.2-5.12.2-7.09-.926-.915-2.176-1.37-3.423-1.367zm101.36 1.585c.58-.15 1.571 1.26 2.871 2.41-1.4.98-2.33 2.132-3.11 2.042-.84-.09-1.54-1.361-2.3-2.121.83-.83 1.56-2.07 2.54-2.33zm-101.38.032c1.08 1.36 2.27 2.21 2.23 3-.03.82-1.26 1.59-1.96 2.39-.84-.76-2.12-1.4-2.38-2.33-.17-.63 1.09-1.66 2.11-3.06zm167.89.23c.83-.02 1.691 1.16 3.041 2.2-1.45 1-2.499 2.26-3.199 2.08-.94-.23-1.61-1.55-2.4-2.41.85-.67 1.688-1.85 2.558-1.87zm-86.38 5.506a4.829 4.829 0 00-3.38 1.494c-1.96 2.04-1.639 4.729.461 7.049.91 1.01 1.71 2.53 1.74 3.84.077 3.001.093 6.005.094 9.01h2.352c.011-3.066.047-6.133.113-9.2.03-1.21.742-2.64 1.592-3.55 2.3-2.46 2.58-5.209.43-7.309a4.687 4.687 0 00-3.403-1.334zm122.13.104c.95 1.46 2.15 2.55 1.95 3.17-.31.93-1.6 1.52-2.48 2.26-.66-.84-1.84-1.67-1.85-2.52-.01-.79 1.23-1.59 2.38-2.91zm-121.86 2.48c.68-.13 1.64 1.17 2.99 2.24-1.43 1-2.35 2.139-3.17 2.069s-1.56-1.329-2.33-2.069c.82-.8 1.56-2.05 2.51-2.24zm200.07.45c1.04 1.35 2.4 2.409 2.21 3.019-.29.97-1.59 1.63-2.47 2.42-.73-.82-1.99-1.61-2.02-2.45-.03-.82 1.21-1.67 2.28-2.99zm-39.5 2.79c-1.11-.027-2.23.414-3.27 1.309-2.11 1.83-2.61 4.72-.5 6.32 2.9 2.2 2.46 4.84 2.48 7.61.001.11-.006.22-.006.33h2.291l-.005-1.12c-.01-2.48-.16-4.68 2.35-6.58 2.09-1.59 1.89-4.369-.13-6.359-1-.985-2.1-1.482-3.21-1.51zm-14.485.006c-1.106-.026-2.21.413-3.236 1.303-2.09 1.82-2.61 4.73-.49 6.32 2.92 2.19 2.45 4.84 2.48 7.6.002.113-.004.227-.004.34h2.284c-.004-.614-.008-1.227-.01-1.84-.01-2.16-.049-4.02 2.191-5.54 2.18-1.48 1.96-4.869.03-6.689-1.03-.975-2.138-1.468-3.245-1.494zm107.88 1.364c-2.67-.01-5.12 2.11-4.66 4.81.4 2.37-.65 3.52-2.04 4.91l-4.487 4.479h3.467l2.75-2.75c1.34-1.34 2.39-2.569 4.85-1.979 2.48.59 4.9-2.1 4.95-4.63.05-2.58-2.2-4.83-4.83-4.84zm-160.26.54c-1.203.087-2.439.689-3.609 1.749-1.01.9-2.55 1.68-3.86 1.71-7.46.16-14.93-.05-22.38.17-1.7.05-3.76.871-4.97 2.041a947.983 947.983 0 00-8.14 7.989h3.43a862.457 862.457 0 015.59-5.45c1.29-1.24 3.46-2.11 5.26-2.17 6.97-.24 13.961-.19 20.931 0 1.44.04 3.08.87 4.22 1.82 2.34 1.96 5.13 2.211 7.09.241 1.92-1.93 1.86-4.83-.14-6.75-1.045-1.005-2.218-1.436-3.422-1.35zm52.281.7c.95.05 1.85 1.23 3.29 2.31-1.48 1.09-2.54 2.4-3.18 2.2-.97-.28-2.019-1.47-2.309-2.49-.13-.47 1.45-2.05 2.2-2.02zm14.27.02c.99.24 2.212 1.329 2.452 2.279.18.68-1.102 1.72-2.192 3.23-1.08-1.47-2.258-2.37-2.308-3.33-.03-.75 1.518-2.31 2.048-2.18zm93.451.31c1.14 1.34 2.47 2.26 2.34 2.9-.18.96-1.39 1.73-2.16 2.58-.75-.74-2.01-1.42-2.1-2.24-.1-.81.98-1.76 1.92-3.24zm-160.04.64c1.14 1.27 2.56 2.219 2.43 2.829-.22.99-1.46 1.751-2.27 2.601-.79-.76-2.089-1.45-2.199-2.3-.1-.78 1.07-1.73 2.04-3.13zm-186.59.489c-2.67-.14-4.66 2.43-4.77 5.28-.05 1.34-.46 2.991-1.33 3.911-.738.775-1.486 1.54-2.232 2.309h3.526c1.32-1.34 2.423-2.436 4.797-2.11 3.04.42 4.849-1.899 4.699-4.959-.15-2.98-2.03-4.291-4.69-4.431zm.08 1.65c1.04 1.4 2.31 2.401 2.15 3.041-.24.94-1.5 1.609-2.33 2.399-.71-.79-1.94-1.55-1.99-2.38-.05-.8 1.12-1.67 2.17-3.06zm360.6 3.822c-1.267-.07-2.55.313-3.46 1.168-1.442 1.348-1.8 3.122-1.229 4.86h3.178c-.354-.429-.7-.919-1.06-1.299.88-.8 1.669-2.01 2.679-2.24.59-.13 1.53 1.3 2.82 2.49-.527.352-.977.715-1.394 1.049h2.722c.49-1.568.233-3.203-.898-4.479-.84-.955-2.09-1.478-3.357-1.548zm-145.9.21c.65-.14 1.61 1.15 3.01 2.26-1.47.99-2.399 2.109-3.199 2.019-.86-.1-1.58-1.33-2.37-2.06.84-.79 1.59-2.01 2.56-2.22zm-16.389 3.46c-.992-.054-1.942.312-2.66 1.21-.37.462-.752.834-1.142 1.148h7.634c-.07-.096-.125-.194-.203-.29-1.007-1.231-2.352-1.997-3.629-2.068z"
     id="path2"
     style="fill:#e6e6e6" />
</svg>
